<svg xmlns="http://www.w3.org/2000/svg" version="1.1" xmlns:xlink="http://www.w3.org/1999/xlink" xmlns:svgjs="http://svgjs.dev/svgjs" width="1920" height="1240" preserveAspectRatio="none" viewBox="0 0 1920 1240"><g mask="url(&quot;#SvgjsMask1911&quot;)" fill="none"><rect width="1920" height="1240" x="0" y="0" fill="url(&quot;#SvgjsRadialGradient1912&quot;)"></rect><g mask="url(&quot;#SvgjsMask1913&quot;)"><path d="M1735.5 1072.5L1150.5 487.5L994.5 487.5" stroke-width="6.5" stroke="rgba(0, 0, 0, 1)"></path><path d="M1725.75 1072.5 a9.75 9.75 0 1 0 19.5 0 a9.75 9.75 0 1 0 -19.5 0zM984.75 487.5 a9.75 9.75 0 1 0 19.5 0 a9.75 9.75 0 1 0 -19.5 0z" fill="rgba(0, 0, 0, 1)"></path><path d="M136.5 214.5L19.5 97.5L19.5 19.5" stroke-width="6.5" stroke="rgba(0, 0, 0, 1)"></path><path d="M126.75 214.5 a9.75 9.75 0 1 0 19.5 0 a9.75 9.75 0 1 0 -19.5 0zM9.75 19.5 a9.75 9.75 0 1 0 19.5 0 a9.75 9.75 0 1 0 -19.5 0z" fill="rgba(0, 0, 0, 1)"></path><path d="M292.5 1111.5L214.5 1033.5L214.5 487.5L331.5 370.5" stroke-width="6.5" stroke="rgba(0, 0, 0, 1)"></path><path d="M282.75 1111.5 a9.75 9.75 0 1 0 19.5 0 a9.75 9.75 0 1 0 -19.5 0zM321.75 370.5 a9.75 9.75 0 1 0 19.5 0 a9.75 9.75 0 1 0 -19.5 0z" fill="rgba(0, 0, 0, 1)"></path><path d="M1696.5 175.5L1891.5 370.5L1891.5 916.5" stroke-width="6.5" stroke="rgba(0, 0, 0, 1)"></path><path d="M1686.75 175.5 a9.75 9.75 0 1 0 19.5 0 a9.75 9.75 0 1 0 -19.5 0zM1881.75 916.5 a9.75 9.75 0 1 0 19.5 0 a9.75 9.75 0 1 0 -19.5 0z" fill="rgba(0, 0, 0, 1)"></path><path d="M253.5 604.5L253.5 487.5L721.5 19.5L877.5 19.5" stroke-width="6.5" stroke="rgba(0, 0, 0, 1)"></path><path d="M243.75 604.5 a9.75 9.75 0 1 0 19.5 0 a9.75 9.75 0 1 0 -19.5 0zM867.75 19.5 a9.75 9.75 0 1 0 19.5 0 a9.75 9.75 0 1 0 -19.5 0z" fill="rgba(0, 0, 0, 1)"></path><path d="M1345.5 1228.5L1579.5 994.5L1579.5 955.5L1501.5 877.5L1111.5 877.5" stroke-width="6.5" stroke="rgba(0, 0, 0, 1)"></path><path d="M1335.75 1228.5 a9.75 9.75 0 1 0 19.5 0 a9.75 9.75 0 1 0 -19.5 0zM1101.75 877.5 a9.75 9.75 0 1 0 19.5 0 a9.75 9.75 0 1 0 -19.5 0z" fill="rgba(0, 0, 0, 1)"></path><path d="M448.5 214.5L448.5 253.5L370.5 331.5L19.5 331.5" stroke-width="6.5" stroke="rgba(0, 0, 0, 1)"></path><path d="M438.75 214.5 a9.75 9.75 0 1 0 19.5 0 a9.75 9.75 0 1 0 -19.5 0zM9.75 331.5 a9.75 9.75 0 1 0 19.5 0 a9.75 9.75 0 1 0 -19.5 0z" fill="rgba(0, 0, 0, 1)"></path><path d="M526.5 1228.5L526.5 1189.5L799.5 916.5L799.5 799.5L1072.5 526.5L1111.5 526.5" stroke-width="6.5" stroke="rgba(0, 0, 0, 1)"></path><path d="M516.75 1228.5 a9.75 9.75 0 1 0 19.5 0 a9.75 9.75 0 1 0 -19.5 0zM1101.75 526.5 a9.75 9.75 0 1 0 19.5 0 a9.75 9.75 0 1 0 -19.5 0z" fill="rgba(0, 0, 0, 1)"></path><path d="M1696.5 682.5L1384.5 682.5L955.5 253.5" stroke-width="6.5" stroke="rgba(0, 0, 0, 1)"></path><path d="M1686.75 682.5 a9.75 9.75 0 1 0 19.5 0 a9.75 9.75 0 1 0 -19.5 0zM945.75 253.5 a9.75 9.75 0 1 0 19.5 0 a9.75 9.75 0 1 0 -19.5 0z" fill="rgba(0, 0, 0, 1)"></path><path d="M292.5 19.5L136.5 175.5" stroke-width="6.5" stroke="rgba(0, 0, 0, 1)"></path><path d="M282.75 19.5 a9.75 9.75 0 1 0 19.5 0 a9.75 9.75 0 1 0 -19.5 0zM126.75 175.5 a9.75 9.75 0 1 0 19.5 0 a9.75 9.75 0 1 0 -19.5 0z" fill="rgba(0, 0, 0, 1)"></path><path d="M994.5 175.5L994.5 253.5L1384.5 643.5L1657.5 643.5" stroke-width="6.5" stroke="rgba(0, 0, 0, 1)"></path><path d="M984.75 175.5 a9.75 9.75 0 1 0 19.5 0 a9.75 9.75 0 1 0 -19.5 0zM1647.75 643.5 a9.75 9.75 0 1 0 19.5 0 a9.75 9.75 0 1 0 -19.5 0z" fill="rgba(0, 0, 0, 1)"></path><path d="M1189.5 136.5L1267.5 136.5L1306.5 97.5L1306.5 19.5" stroke-width="6.5" stroke="rgba(0, 0, 0, 1)"></path><path d="M1179.75 136.5 a9.75 9.75 0 1 0 19.5 0 a9.75 9.75 0 1 0 -19.5 0zM1296.75 19.5 a9.75 9.75 0 1 0 19.5 0 a9.75 9.75 0 1 0 -19.5 0z" fill="rgba(0, 0, 0, 1)"></path><path d="M1540.5 175.5L1696.5 19.5L1735.5 19.5L1930.5 214.5L1930.5 565.5" stroke-width="6.5" stroke="rgba(0, 0, 0, 1)"></path><path d="M1530.75 175.5 a9.75 9.75 0 1 0 19.5 0 a9.75 9.75 0 1 0 -19.5 0zM1920.75 565.5 a9.75 9.75 0 1 0 19.5 0 a9.75 9.75 0 1 0 -19.5 0z" fill="rgba(0, 0, 0, 1)"></path><path d="M1150.5 604.5L1228.5 604.5L1462.5 838.5" stroke-width="6.5" stroke="rgba(0, 0, 0, 1)"></path><path d="M1140.75 604.5 a9.75 9.75 0 1 0 19.5 0 a9.75 9.75 0 1 0 -19.5 0zM1452.75 838.5 a9.75 9.75 0 1 0 19.5 0 a9.75 9.75 0 1 0 -19.5 0z" fill="rgba(0, 0, 0, 1)"></path><path d="M955.5 526.5L760.5 721.5L604.5 721.5L292.5 1033.5L253.5 1033.5" stroke-width="6.5" stroke="rgba(0, 0, 0, 1)"></path><path d="M945.75 526.5 a9.75 9.75 0 1 0 19.5 0 a9.75 9.75 0 1 0 -19.5 0zM243.75 1033.5 a9.75 9.75 0 1 0 19.5 0 a9.75 9.75 0 1 0 -19.5 0z" fill="rgba(0, 0, 0, 1)"></path><path d="M526.5 721.5L292.5 487.5" stroke-width="6.5" stroke="rgba(0, 0, 0, 1)"></path><path d="M516.75 721.5 a9.75 9.75 0 1 0 19.5 0 a9.75 9.75 0 1 0 -19.5 0zM282.75 487.5 a9.75 9.75 0 1 0 19.5 0 a9.75 9.75 0 1 0 -19.5 0z" fill="rgba(0, 0, 0, 1)"></path><path d="M1657.5 1228.5L1735.5 1150.5L1930.5 1150.5" stroke-width="6.5" stroke="rgba(0, 0, 0, 1)"></path><path d="M1647.75 1228.5 a9.75 9.75 0 1 0 19.5 0 a9.75 9.75 0 1 0 -19.5 0zM1920.75 1150.5 a9.75 9.75 0 1 0 19.5 0 a9.75 9.75 0 1 0 -19.5 0z" fill="rgba(0, 0, 0, 1)"></path><path d="M292.5 292.5L370.5 292.5L409.5 253.5L409.5 97.5L370.5 58.5L292.5 58.5L175.5 175.5L175.5 214.5L253.5 292.5" stroke-width="6.5" stroke="rgba(0, 0, 0, 1)"></path><path d="M282.75 292.5 a9.75 9.75 0 1 0 19.5 0 a9.75 9.75 0 1 0 -19.5 0zM243.75 292.5 a9.75 9.75 0 1 0 19.5 0 a9.75 9.75 0 1 0 -19.5 0z" fill="rgba(0, 0, 0, 1)"></path><path d="M58.5 760.5L19.5 799.5L19.5 1111.5L58.5 1150.5L97.5 1150.5L175.5 1228.5L409.5 1228.5" stroke-width="6.5" stroke="rgba(0, 0, 0, 1)"></path><path d="M48.75 760.5 a9.75 9.75 0 1 0 19.5 0 a9.75 9.75 0 1 0 -19.5 0zM399.75 1228.5 a9.75 9.75 0 1 0 19.5 0 a9.75 9.75 0 1 0 -19.5 0z" fill="rgba(0, 0, 0, 1)"></path><path d="M1345.5 1150.5L1540.5 955.5" stroke-width="6.5" stroke="rgba(0, 0, 0, 1)"></path><path d="M1335.75 1150.5 a9.75 9.75 0 1 0 19.5 0 a9.75 9.75 0 1 0 -19.5 0zM1530.75 955.5 a9.75 9.75 0 1 0 19.5 0 a9.75 9.75 0 1 0 -19.5 0z" fill="rgba(0, 0, 0, 1)"></path><path d="M1306.5 526.5L1462.5 526.5L1735.5 253.5" stroke-width="6.5" stroke="rgba(0, 0, 0, 1)"></path><path d="M1296.75 526.5 a9.75 9.75 0 1 0 19.5 0 a9.75 9.75 0 1 0 -19.5 0zM1725.75 253.5 a9.75 9.75 0 1 0 19.5 0 a9.75 9.75 0 1 0 -19.5 0z" fill="rgba(0, 0, 0, 1)"></path><path d="M1735.5 721.5L1579.5 877.5" stroke-width="6.5" stroke="rgba(0, 0, 0, 1)"></path><path d="M1725.75 721.5 a9.75 9.75 0 1 0 19.5 0 a9.75 9.75 0 1 0 -19.5 0zM1569.75 877.5 a9.75 9.75 0 1 0 19.5 0 a9.75 9.75 0 1 0 -19.5 0z" fill="rgba(0, 0, 0, 1)"></path><path d="M838.5 1072.5L838.5 1228.5" stroke-width="6.5" stroke="rgba(0, 0, 0, 1)"></path><path d="M828.75 1072.5 a9.75 9.75 0 1 0 19.5 0 a9.75 9.75 0 1 0 -19.5 0zM828.75 1228.5 a9.75 9.75 0 1 0 19.5 0 a9.75 9.75 0 1 0 -19.5 0z" fill="rgba(0, 0, 0, 1)"></path><path d="M760.5 409.5L604.5 409.5L448.5 565.5L409.5 565.5L331.5 487.5L331.5 448.5L526.5 253.5L604.5 253.5" stroke-width="6.5" stroke="rgba(0, 0, 0, 1)"></path><path d="M750.75 409.5 a9.75 9.75 0 1 0 19.5 0 a9.75 9.75 0 1 0 -19.5 0zM594.75 253.5 a9.75 9.75 0 1 0 19.5 0 a9.75 9.75 0 1 0 -19.5 0z" fill="rgba(0, 0, 0, 1)"></path><path d="M1852.5 448.5L1813.5 487.5L1540.5 487.5L1423.5 604.5L1384.5 604.5L1345.5 565.5" stroke-width="6.5" stroke="rgba(0, 0, 0, 1)"></path><path d="M1842.75 448.5 a9.75 9.75 0 1 0 19.5 0 a9.75 9.75 0 1 0 -19.5 0zM1335.75 565.5 a9.75 9.75 0 1 0 19.5 0 a9.75 9.75 0 1 0 -19.5 0z" fill="rgba(0, 0, 0, 1)"></path><path d="M19.5 1189.5L97.5 1189.5L136.5 1228.5" stroke-width="6.5" stroke="rgba(0, 0, 0, 1)"></path><path d="M9.75 1189.5 a9.75 9.75 0 1 0 19.5 0 a9.75 9.75 0 1 0 -19.5 0zM126.75 1228.5 a9.75 9.75 0 1 0 19.5 0 a9.75 9.75 0 1 0 -19.5 0z" fill="rgba(0, 0, 0, 1)"></path><path d="M682.5 331.5L643.5 370.5L448.5 370.5L370.5 448.5L370.5 487.5L409.5 526.5L448.5 526.5L565.5 409.5" stroke-width="6.5" stroke="rgba(0, 0, 0, 1)"></path><path d="M672.75 331.5 a9.75 9.75 0 1 0 19.5 0 a9.75 9.75 0 1 0 -19.5 0zM555.75 409.5 a9.75 9.75 0 1 0 19.5 0 a9.75 9.75 0 1 0 -19.5 0z" fill="rgba(0, 0, 0, 1)"></path><path d="M1774.5 916.5L1930.5 1072.5L1930.5 1111.5" stroke-width="6.5" stroke="rgba(0, 0, 0, 1)"></path><path d="M1764.75 916.5 a9.75 9.75 0 1 0 19.5 0 a9.75 9.75 0 1 0 -19.5 0zM1920.75 1111.5 a9.75 9.75 0 1 0 19.5 0 a9.75 9.75 0 1 0 -19.5 0z" fill="rgba(0, 0, 0, 1)"></path><path d="M487.5 175.5L526.5 175.5L682.5 19.5" stroke-width="6.5" stroke="rgba(0, 0, 0, 1)"></path><path d="M477.75 175.5 a9.75 9.75 0 1 0 19.5 0 a9.75 9.75 0 1 0 -19.5 0zM672.75 19.5 a9.75 9.75 0 1 0 19.5 0 a9.75 9.75 0 1 0 -19.5 0z" fill="rgba(0, 0, 0, 1)"></path><path d="M175.5 1150.5L214.5 1189.5L487.5 1189.5L526.5 1150.5L526.5 838.5L604.5 760.5" stroke-width="6.5" stroke="rgba(0, 0, 0, 1)"></path><path d="M165.75 1150.5 a9.75 9.75 0 1 0 19.5 0 a9.75 9.75 0 1 0 -19.5 0zM594.75 760.5 a9.75 9.75 0 1 0 19.5 0 a9.75 9.75 0 1 0 -19.5 0z" fill="rgba(0, 0, 0, 1)"></path><path d="M1189.5 643.5L1228.5 643.5L1423.5 838.5" stroke-width="6.5" stroke="rgba(0, 0, 0, 1)"></path><path d="M1179.75 643.5 a9.75 9.75 0 1 0 19.5 0 a9.75 9.75 0 1 0 -19.5 0zM1413.75 838.5 a9.75 9.75 0 1 0 19.5 0 a9.75 9.75 0 1 0 -19.5 0z" fill="rgba(0, 0, 0, 1)"></path><path d="M1111.5 19.5L1228.5 19.5L1267.5 58.5L1267.5 97.5" stroke-width="6.5" stroke="rgba(0, 0, 0, 1)"></path><path d="M1101.75 19.5 a9.75 9.75 0 1 0 19.5 0 a9.75 9.75 0 1 0 -19.5 0zM1257.75 97.5 a9.75 9.75 0 1 0 19.5 0 a9.75 9.75 0 1 0 -19.5 0z" fill="rgba(0, 0, 0, 1)"></path><path d="M1501.5 448.5L1501.5 19.5" stroke-width="6.5" stroke="rgba(0, 0, 0, 1)"></path><path d="M1491.75 448.5 a9.75 9.75 0 1 0 19.5 0 a9.75 9.75 0 1 0 -19.5 0zM1491.75 19.5 a9.75 9.75 0 1 0 19.5 0 a9.75 9.75 0 1 0 -19.5 0z" fill="rgba(0, 0, 0, 1)"></path><path d="M1306.5 370.5L1306.5 292.5L1462.5 136.5L1462.5 19.5" stroke-width="6.5" stroke="rgba(0, 0, 0, 1)"></path><path d="M1296.75 370.5 a9.75 9.75 0 1 0 19.5 0 a9.75 9.75 0 1 0 -19.5 0zM1452.75 19.5 a9.75 9.75 0 1 0 19.5 0 a9.75 9.75 0 1 0 -19.5 0z" fill="rgba(0, 0, 0, 1)"></path><path d="M1618.5 1150.5L1540.5 1228.5L1384.5 1228.5" stroke-width="6.5" stroke="rgba(0, 0, 0, 1)"></path><path d="M1608.75 1150.5 a9.75 9.75 0 1 0 19.5 0 a9.75 9.75 0 1 0 -19.5 0zM1374.75 1228.5 a9.75 9.75 0 1 0 19.5 0 a9.75 9.75 0 1 0 -19.5 0z" fill="rgba(0, 0, 0, 1)"></path><path d="M1111.5 799.5L838.5 799.5" stroke-width="6.5" stroke="rgba(0, 0, 0, 1)"></path><path d="M1101.75 799.5 a9.75 9.75 0 1 0 19.5 0 a9.75 9.75 0 1 0 -19.5 0zM828.75 799.5 a9.75 9.75 0 1 0 19.5 0 a9.75 9.75 0 1 0 -19.5 0z" fill="rgba(0, 0, 0, 1)"></path><path d="M1813.5 994.5L1891.5 1072.5L1891.5 1111.5" stroke-width="6.5" stroke="rgba(0, 0, 0, 1)"></path><path d="M1803.75 994.5 a9.75 9.75 0 1 0 19.5 0 a9.75 9.75 0 1 0 -19.5 0zM1881.75 1111.5 a9.75 9.75 0 1 0 19.5 0 a9.75 9.75 0 1 0 -19.5 0z" fill="rgba(0, 0, 0, 1)"></path><path d="M253.5 175.5L331.5 253.5L370.5 253.5" stroke-width="6.5" stroke="rgba(0, 0, 0, 1)"></path><path d="M243.75 175.5 a9.75 9.75 0 1 0 19.5 0 a9.75 9.75 0 1 0 -19.5 0zM360.75 253.5 a9.75 9.75 0 1 0 19.5 0 a9.75 9.75 0 1 0 -19.5 0z" fill="rgba(0, 0, 0, 1)"></path><path d="M838.5 1033.5L1033.5 838.5L1384.5 838.5" stroke-width="6.5" stroke="rgba(0, 0, 0, 1)"></path><path d="M828.75 1033.5 a9.75 9.75 0 1 0 19.5 0 a9.75 9.75 0 1 0 -19.5 0zM1374.75 838.5 a9.75 9.75 0 1 0 19.5 0 a9.75 9.75 0 1 0 -19.5 0z" fill="rgba(0, 0, 0, 1)"></path><path d="M1306.5 916.5L1189.5 916.5L877.5 1228.5" stroke-width="6.5" stroke="rgba(0, 0, 0, 1)"></path><path d="M1296.75 916.5 a9.75 9.75 0 1 0 19.5 0 a9.75 9.75 0 1 0 -19.5 0zM867.75 1228.5 a9.75 9.75 0 1 0 19.5 0 a9.75 9.75 0 1 0 -19.5 0z" fill="rgba(0, 0, 0, 1)"></path><path d="M175.5 916.5L175.5 994.5L58.5 1111.5" stroke-width="6.5" stroke="rgba(0, 0, 0, 1)"></path><path d="M165.75 916.5 a9.75 9.75 0 1 0 19.5 0 a9.75 9.75 0 1 0 -19.5 0zM48.75 1111.5 a9.75 9.75 0 1 0 19.5 0 a9.75 9.75 0 1 0 -19.5 0z" fill="rgba(0, 0, 0, 1)"></path><path d="M370.5 136.5L331.5 97.5L292.5 97.5L253.5 136.5" stroke-width="6.5" stroke="rgba(0, 0, 0, 1)"></path><path d="M360.75 136.5 a9.75 9.75 0 1 0 19.5 0 a9.75 9.75 0 1 0 -19.5 0zM243.75 136.5 a9.75 9.75 0 1 0 19.5 0 a9.75 9.75 0 1 0 -19.5 0z" fill="rgba(0, 0, 0, 1)"></path><path d="M604.5 1150.5L877.5 877.5L955.5 877.5L994.5 838.5" stroke-width="6.5" stroke="rgba(0, 0, 0, 1)"></path><path d="M594.75 1150.5 a9.75 9.75 0 1 0 19.5 0 a9.75 9.75 0 1 0 -19.5 0zM984.75 838.5 a9.75 9.75 0 1 0 19.5 0 a9.75 9.75 0 1 0 -19.5 0z" fill="rgba(0, 0, 0, 1)"></path><path d="M1228.5 760.5L1189.5 799.5L1150.5 799.5L994.5 643.5" stroke-width="6.5" stroke="rgba(0, 0, 0, 1)"></path><path d="M1218.75 760.5 a9.75 9.75 0 1 0 19.5 0 a9.75 9.75 0 1 0 -19.5 0zM984.75 643.5 a9.75 9.75 0 1 0 19.5 0 a9.75 9.75 0 1 0 -19.5 0z" fill="rgba(0, 0, 0, 1)"></path><path d="M721.5 1072.5L799.5 994.5L838.5 994.5L916.5 916.5" stroke-width="6.5" stroke="rgba(0, 0, 0, 1)"></path><path d="M711.75 1072.5 a9.75 9.75 0 1 0 19.5 0 a9.75 9.75 0 1 0 -19.5 0zM906.75 916.5 a9.75 9.75 0 1 0 19.5 0 a9.75 9.75 0 1 0 -19.5 0z" fill="rgba(0, 0, 0, 1)"></path><path d="M1891.5 19.5L1891.5 136.5L1930.5 175.5" stroke-width="6.5" stroke="rgba(0, 0, 0, 1)"></path><path d="M1881.75 19.5 a9.75 9.75 0 1 0 19.5 0 a9.75 9.75 0 1 0 -19.5 0zM1920.75 175.5 a9.75 9.75 0 1 0 19.5 0 a9.75 9.75 0 1 0 -19.5 0z" fill="rgba(0, 0, 0, 1)"></path><path d="M994.5 916.5L1072.5 994.5" stroke-width="6.5" stroke="rgba(0, 0, 0, 1)"></path><path d="M984.75 916.5 a9.75 9.75 0 1 0 19.5 0 a9.75 9.75 0 1 0 -19.5 0zM1062.75 994.5 a9.75 9.75 0 1 0 19.5 0 a9.75 9.75 0 1 0 -19.5 0z" fill="rgba(0, 0, 0, 1)"></path><path d="M1228.5 409.5L1267.5 370.5L1267.5 175.5L1423.5 19.5" stroke-width="6.5" stroke="rgba(0, 0, 0, 1)"></path><path d="M1218.75 409.5 a9.75 9.75 0 1 0 19.5 0 a9.75 9.75 0 1 0 -19.5 0zM1413.75 19.5 a9.75 9.75 0 1 0 19.5 0 a9.75 9.75 0 1 0 -19.5 0z" fill="rgba(0, 0, 0, 1)"></path><path d="M448.5 136.5L526.5 136.5L643.5 19.5" stroke-width="6.5" stroke="rgba(0, 0, 0, 1)"></path><path d="M438.75 136.5 a9.75 9.75 0 1 0 19.5 0 a9.75 9.75 0 1 0 -19.5 0zM633.75 19.5 a9.75 9.75 0 1 0 19.5 0 a9.75 9.75 0 1 0 -19.5 0z" fill="rgba(0, 0, 0, 1)"></path><path d="M721.5 760.5L760.5 799.5L760.5 916.5L721.5 955.5L565.5 955.5" stroke-width="6.5" stroke="rgba(0, 0, 0, 1)"></path><path d="M711.75 760.5 a9.75 9.75 0 1 0 19.5 0 a9.75 9.75 0 1 0 -19.5 0zM555.75 955.5 a9.75 9.75 0 1 0 19.5 0 a9.75 9.75 0 1 0 -19.5 0z" fill="rgba(0, 0, 0, 1)"></path><path d="M1540.5 799.5L1618.5 721.5L1696.5 721.5" stroke-width="6.5" stroke="rgba(0, 0, 0, 1)"></path><path d="M1530.75 799.5 a9.75 9.75 0 1 0 19.5 0 a9.75 9.75 0 1 0 -19.5 0zM1686.75 721.5 a9.75 9.75 0 1 0 19.5 0 a9.75 9.75 0 1 0 -19.5 0z" fill="rgba(0, 0, 0, 1)"></path><path d="M19.5 292.5L97.5 292.5L136.5 253.5L175.5 253.5L214.5 292.5" stroke-width="6.5" stroke="rgba(0, 0, 0, 1)"></path><path d="M9.75 292.5 a9.75 9.75 0 1 0 19.5 0 a9.75 9.75 0 1 0 -19.5 0zM204.75 292.5 a9.75 9.75 0 1 0 19.5 0 a9.75 9.75 0 1 0 -19.5 0z" fill="rgba(0, 0, 0, 1)"></path><path d="M916.5 253.5L1072.5 409.5L1072.5 448.5" stroke-width="6.5" stroke="rgba(0, 0, 0, 1)"></path><path d="M906.75 253.5 a9.75 9.75 0 1 0 19.5 0 a9.75 9.75 0 1 0 -19.5 0zM1062.75 448.5 a9.75 9.75 0 1 0 19.5 0 a9.75 9.75 0 1 0 -19.5 0z" fill="rgba(0, 0, 0, 1)"></path><path d="M58.5 448.5L19.5 487.5L19.5 760.5" stroke-width="6.5" stroke="rgba(0, 0, 0, 1)"></path><path d="M48.75 448.5 a9.75 9.75 0 1 0 19.5 0 a9.75 9.75 0 1 0 -19.5 0zM9.75 760.5 a9.75 9.75 0 1 0 19.5 0 a9.75 9.75 0 1 0 -19.5 0z" fill="rgba(0, 0, 0, 1)"></path><path d="M58.5 565.5L58.5 721.5L175.5 838.5L175.5 877.5L58.5 994.5L58.5 1072.5" stroke-width="6.5" stroke="rgba(0, 0, 0, 1)"></path><path d="M48.75 565.5 a9.75 9.75 0 1 0 19.5 0 a9.75 9.75 0 1 0 -19.5 0zM48.75 1072.5 a9.75 9.75 0 1 0 19.5 0 a9.75 9.75 0 1 0 -19.5 0z" fill="rgba(0, 0, 0, 1)"></path><path d="M1696.5 370.5L1774.5 292.5" stroke-width="6.5" stroke="rgba(0, 0, 0, 1)"></path><path d="M1686.75 370.5 a9.75 9.75 0 1 0 19.5 0 a9.75 9.75 0 1 0 -19.5 0zM1764.75 292.5 a9.75 9.75 0 1 0 19.5 0 a9.75 9.75 0 1 0 -19.5 0z" fill="rgba(0, 0, 0, 1)"></path><path d="M1033.5 1228.5L994.5 1189.5L994.5 1150.5L1189.5 955.5L1501.5 955.5" stroke-width="6.5" stroke="rgba(0, 0, 0, 1)"></path><path d="M1023.75 1228.5 a9.75 9.75 0 1 0 19.5 0 a9.75 9.75 0 1 0 -19.5 0zM1491.75 955.5 a9.75 9.75 0 1 0 19.5 0 a9.75 9.75 0 1 0 -19.5 0z" fill="rgba(0, 0, 0, 1)"></path><path d="M526.5 58.5L565.5 58.5L604.5 19.5" stroke-width="6.5" stroke="rgba(0, 0, 0, 1)"></path><path d="M516.75 58.5 a9.75 9.75 0 1 0 19.5 0 a9.75 9.75 0 1 0 -19.5 0zM594.75 19.5 a9.75 9.75 0 1 0 19.5 0 a9.75 9.75 0 1 0 -19.5 0z" fill="rgba(0, 0, 0, 1)"></path><path d="M1735.5 409.5L1618.5 409.5L1579.5 448.5" stroke-width="6.5" stroke="rgba(0, 0, 0, 1)"></path><path d="M1725.75 409.5 a9.75 9.75 0 1 0 19.5 0 a9.75 9.75 0 1 0 -19.5 0zM1569.75 448.5 a9.75 9.75 0 1 0 19.5 0 a9.75 9.75 0 1 0 -19.5 0z" fill="rgba(0, 0, 0, 1)"></path><path d="M1150.5 253.5L1228.5 175.5" stroke-width="6.5" stroke="rgba(0, 0, 0, 1)"></path><path d="M1140.75 253.5 a9.75 9.75 0 1 0 19.5 0 a9.75 9.75 0 1 0 -19.5 0zM1218.75 175.5 a9.75 9.75 0 1 0 19.5 0 a9.75 9.75 0 1 0 -19.5 0z" fill="rgba(0, 0, 0, 1)"></path><path d="M643.5 487.5L565.5 565.5L565.5 721.5" stroke-width="6.5" stroke="rgba(0, 0, 0, 1)"></path><path d="M633.75 487.5 a9.75 9.75 0 1 0 19.5 0 a9.75 9.75 0 1 0 -19.5 0zM555.75 721.5 a9.75 9.75 0 1 0 19.5 0 a9.75 9.75 0 1 0 -19.5 0z" fill="rgba(0, 0, 0, 1)"></path><path d="M1852.5 643.5L1852.5 565.5L1813.5 526.5L1540.5 526.5L1462.5 604.5" stroke-width="6.5" stroke="rgba(0, 0, 0, 1)"></path><path d="M1842.75 643.5 a9.75 9.75 0 1 0 19.5 0 a9.75 9.75 0 1 0 -19.5 0zM1452.75 604.5 a9.75 9.75 0 1 0 19.5 0 a9.75 9.75 0 1 0 -19.5 0z" fill="rgba(0, 0, 0, 1)"></path><path d="M1774.5 97.5L1891.5 214.5L1891.5 331.5" stroke-width="6.5" stroke="rgba(0, 0, 0, 1)"></path><path d="M1764.75 97.5 a9.75 9.75 0 1 0 19.5 0 a9.75 9.75 0 1 0 -19.5 0zM1881.75 331.5 a9.75 9.75 0 1 0 19.5 0 a9.75 9.75 0 1 0 -19.5 0z" fill="rgba(0, 0, 0, 1)"></path><path d="M799.5 136.5L682.5 253.5L643.5 253.5L604.5 214.5L604.5 175.5L721.5 58.5L1111.5 58.5" stroke-width="6.5" stroke="rgba(0, 0, 0, 1)"></path><path d="M789.75 136.5 a9.75 9.75 0 1 0 19.5 0 a9.75 9.75 0 1 0 -19.5 0zM1101.75 58.5 a9.75 9.75 0 1 0 19.5 0 a9.75 9.75 0 1 0 -19.5 0z" fill="rgba(0, 0, 0, 1)"></path><path d="M1384.5 994.5L1189.5 994.5L1033.5 1150.5L1033.5 1189.5L1072.5 1228.5L1189.5 1228.5L1228.5 1189.5L1228.5 1033.5" stroke-width="6.5" stroke="rgba(0, 0, 0, 1)"></path><path d="M1374.75 994.5 a9.75 9.75 0 1 0 19.5 0 a9.75 9.75 0 1 0 -19.5 0zM1218.75 1033.5 a9.75 9.75 0 1 0 19.5 0 a9.75 9.75 0 1 0 -19.5 0z" fill="rgba(0, 0, 0, 1)"></path><path d="M1384.5 136.5L1306.5 214.5L1306.5 253.5" stroke-width="6.5" stroke="rgba(0, 0, 0, 1)"></path><path d="M1374.75 136.5 a9.75 9.75 0 1 0 19.5 0 a9.75 9.75 0 1 0 -19.5 0zM1296.75 253.5 a9.75 9.75 0 1 0 19.5 0 a9.75 9.75 0 1 0 -19.5 0z" fill="rgba(0, 0, 0, 1)"></path><path d="M916.5 97.5L955.5 136.5L955.5 214.5" stroke-width="6.5" stroke="rgba(0, 0, 0, 1)"></path><path d="M906.75 97.5 a9.75 9.75 0 1 0 19.5 0 a9.75 9.75 0 1 0 -19.5 0zM945.75 214.5 a9.75 9.75 0 1 0 19.5 0 a9.75 9.75 0 1 0 -19.5 0z" fill="rgba(0, 0, 0, 1)"></path><path d="M97.5 19.5L253.5 19.5" stroke-width="6.5" stroke="rgba(0, 0, 0, 1)"></path><path d="M87.75 19.5 a9.75 9.75 0 1 0 19.5 0 a9.75 9.75 0 1 0 -19.5 0zM243.75 19.5 a9.75 9.75 0 1 0 19.5 0 a9.75 9.75 0 1 0 -19.5 0z" fill="rgba(0, 0, 0, 1)"></path><path d="M916.5 175.5L838.5 97.5L721.5 97.5L643.5 175.5L643.5 214.5" stroke-width="6.5" stroke="rgba(0, 0, 0, 1)"></path><path d="M906.75 175.5 a9.75 9.75 0 1 0 19.5 0 a9.75 9.75 0 1 0 -19.5 0zM633.75 214.5 a9.75 9.75 0 1 0 19.5 0 a9.75 9.75 0 1 0 -19.5 0z" fill="rgba(0, 0, 0, 1)"></path><path d="M1735.5 682.5L1813.5 604.5L1813.5 565.5" stroke-width="6.5" stroke="rgba(0, 0, 0, 1)"></path><path d="M1725.75 682.5 a9.75 9.75 0 1 0 19.5 0 a9.75 9.75 0 1 0 -19.5 0zM1803.75 565.5 a9.75 9.75 0 1 0 19.5 0 a9.75 9.75 0 1 0 -19.5 0z" fill="rgba(0, 0, 0, 1)"></path><path d="M1150.5 97.5L1150.5 214.5L1072.5 292.5" stroke-width="6.5" stroke="rgba(0, 0, 0, 1)"></path><path d="M1140.75 97.5 a9.75 9.75 0 1 0 19.5 0 a9.75 9.75 0 1 0 -19.5 0zM1062.75 292.5 a9.75 9.75 0 1 0 19.5 0 a9.75 9.75 0 1 0 -19.5 0z" fill="rgba(0, 0, 0, 1)"></path><path d="M799.5 760.5L994.5 565.5L994.5 526.5" stroke-width="6.5" stroke="rgba(0, 0, 0, 1)"></path><path d="M789.75 760.5 a9.75 9.75 0 1 0 19.5 0 a9.75 9.75 0 1 0 -19.5 0zM984.75 526.5 a9.75 9.75 0 1 0 19.5 0 a9.75 9.75 0 1 0 -19.5 0z" fill="rgba(0, 0, 0, 1)"></path><path d="M253.5 877.5L253.5 643.5L331.5 565.5" stroke-width="6.5" stroke="rgba(0, 0, 0, 1)"></path><path d="M243.75 877.5 a9.75 9.75 0 1 0 19.5 0 a9.75 9.75 0 1 0 -19.5 0zM321.75 565.5 a9.75 9.75 0 1 0 19.5 0 a9.75 9.75 0 1 0 -19.5 0z" fill="rgba(0, 0, 0, 1)"></path><path d="M643.5 994.5L604.5 1033.5L604.5 1072.5" stroke-width="6.5" stroke="rgba(0, 0, 0, 1)"></path><path d="M633.75 994.5 a9.75 9.75 0 1 0 19.5 0 a9.75 9.75 0 1 0 -19.5 0zM594.75 1072.5 a9.75 9.75 0 1 0 19.5 0 a9.75 9.75 0 1 0 -19.5 0z" fill="rgba(0, 0, 0, 1)"></path><path d="M721.5 253.5L877.5 253.5L916.5 214.5" stroke-width="6.5" stroke="rgba(0, 0, 0, 1)"></path><path d="M711.75 253.5 a9.75 9.75 0 1 0 19.5 0 a9.75 9.75 0 1 0 -19.5 0zM906.75 214.5 a9.75 9.75 0 1 0 19.5 0 a9.75 9.75 0 1 0 -19.5 0z" fill="rgba(0, 0, 0, 1)"></path><path d="M1345.5 1111.5L1384.5 1072.5L1384.5 1033.5" stroke-width="6.5" stroke="rgba(0, 0, 0, 1)"></path><path d="M1335.75 1111.5 a9.75 9.75 0 1 0 19.5 0 a9.75 9.75 0 1 0 -19.5 0zM1374.75 1033.5 a9.75 9.75 0 1 0 19.5 0 a9.75 9.75 0 1 0 -19.5 0z" fill="rgba(0, 0, 0, 1)"></path><path d="M1228.5 448.5L1462.5 448.5" stroke-width="6.5" stroke="rgba(0, 0, 0, 1)"></path><path d="M1218.75 448.5 a9.75 9.75 0 1 0 19.5 0 a9.75 9.75 0 1 0 -19.5 0zM1452.75 448.5 a9.75 9.75 0 1 0 19.5 0 a9.75 9.75 0 1 0 -19.5 0z" fill="rgba(0, 0, 0, 1)"></path><path d="M58.5 877.5L58.5 799.5" stroke-width="6.5" stroke="rgba(0, 0, 0, 1)"></path><path d="M48.75 877.5 a9.75 9.75 0 1 0 19.5 0 a9.75 9.75 0 1 0 -19.5 0zM48.75 799.5 a9.75 9.75 0 1 0 19.5 0 a9.75 9.75 0 1 0 -19.5 0z" fill="rgba(0, 0, 0, 1)"></path><path d="M1813.5 877.5L1618.5 877.5" stroke-width="6.5" stroke="rgba(0, 0, 0, 1)"></path><path d="M1803.75 877.5 a9.75 9.75 0 1 0 19.5 0 a9.75 9.75 0 1 0 -19.5 0zM1608.75 877.5 a9.75 9.75 0 1 0 19.5 0 a9.75 9.75 0 1 0 -19.5 0z" fill="rgba(0, 0, 0, 1)"></path><path d="M175.5 526.5L175.5 448.5L214.5 409.5L214.5 370.5" stroke-width="6.5" stroke="rgba(0, 0, 0, 1)"></path><path d="M165.75 526.5 a9.75 9.75 0 1 0 19.5 0 a9.75 9.75 0 1 0 -19.5 0zM204.75 370.5 a9.75 9.75 0 1 0 19.5 0 a9.75 9.75 0 1 0 -19.5 0z" fill="rgba(0, 0, 0, 1)"></path><path d="M1189.5 760.5L1228.5 721.5L1228.5 682.5" stroke-width="6.5" stroke="rgba(0, 0, 0, 1)"></path><path d="M1179.75 760.5 a9.75 9.75 0 1 0 19.5 0 a9.75 9.75 0 1 0 -19.5 0zM1218.75 682.5 a9.75 9.75 0 1 0 19.5 0 a9.75 9.75 0 1 0 -19.5 0z" fill="rgba(0, 0, 0, 1)"></path><path d="M682.5 799.5L604.5 799.5L565.5 838.5L565.5 916.5" stroke-width="6.5" stroke="rgba(0, 0, 0, 1)"></path><path d="M672.75 799.5 a9.75 9.75 0 1 0 19.5 0 a9.75 9.75 0 1 0 -19.5 0zM555.75 916.5 a9.75 9.75 0 1 0 19.5 0 a9.75 9.75 0 1 0 -19.5 0z" fill="rgba(0, 0, 0, 1)"></path><path d="M955.5 19.5L1072.5 19.5" stroke-width="6.5" stroke="rgba(0, 0, 0, 1)"></path><path d="M945.75 19.5 a9.75 9.75 0 1 0 19.5 0 a9.75 9.75 0 1 0 -19.5 0zM1062.75 19.5 a9.75 9.75 0 1 0 19.5 0 a9.75 9.75 0 1 0 -19.5 0z" fill="rgba(0, 0, 0, 1)"></path><path d="M1189.5 1072.5L1072.5 1189.5" stroke-width="6.5" stroke="rgba(0, 0, 0, 1)"></path><path d="M1179.75 1072.5 a9.75 9.75 0 1 0 19.5 0 a9.75 9.75 0 1 0 -19.5 0zM1062.75 1189.5 a9.75 9.75 0 1 0 19.5 0 a9.75 9.75 0 1 0 -19.5 0z" fill="rgba(0, 0, 0, 1)"></path><path d="M1072.5 760.5L994.5 682.5L955.5 682.5L877.5 760.5" stroke-width="6.5" stroke="rgba(0, 0, 0, 1)"></path><path d="M1062.75 760.5 a9.75 9.75 0 1 0 19.5 0 a9.75 9.75 0 1 0 -19.5 0zM867.75 760.5 a9.75 9.75 0 1 0 19.5 0 a9.75 9.75 0 1 0 -19.5 0z" fill="rgba(0, 0, 0, 1)"></path><path d="M253.5 955.5L253.5 916.5L448.5 721.5L487.5 721.5L526.5 760.5" stroke-width="6.5" stroke="rgba(0, 0, 0, 1)"></path><path d="M243.75 955.5 a9.75 9.75 0 1 0 19.5 0 a9.75 9.75 0 1 0 -19.5 0zM516.75 760.5 a9.75 9.75 0 1 0 19.5 0 a9.75 9.75 0 1 0 -19.5 0z" fill="rgba(0, 0, 0, 1)"></path><path d="M1657.5 1150.5L1579.5 1228.5" stroke-width="6.5" stroke="rgba(0, 0, 0, 1)"></path><path d="M1647.75 1150.5 a9.75 9.75 0 1 0 19.5 0 a9.75 9.75 0 1 0 -19.5 0zM1569.75 1228.5 a9.75 9.75 0 1 0 19.5 0 a9.75 9.75 0 1 0 -19.5 0z" fill="rgba(0, 0, 0, 1)"></path><path d="M916.5 526.5L760.5 682.5L721.5 682.5L682.5 643.5L604.5 643.5" stroke-width="6.5" stroke="rgba(0, 0, 0, 1)"></path><path d="M906.75 526.5 a9.75 9.75 0 1 0 19.5 0 a9.75 9.75 0 1 0 -19.5 0zM594.75 643.5 a9.75 9.75 0 1 0 19.5 0 a9.75 9.75 0 1 0 -19.5 0z" fill="rgba(0, 0, 0, 1)"></path><path d="M331.5 1150.5L487.5 994.5" stroke-width="6.5" stroke="rgba(0, 0, 0, 1)"></path><path d="M321.75 1150.5 a9.75 9.75 0 1 0 19.5 0 a9.75 9.75 0 1 0 -19.5 0zM477.75 994.5 a9.75 9.75 0 1 0 19.5 0 a9.75 9.75 0 1 0 -19.5 0z" fill="rgba(0, 0, 0, 1)"></path><path d="M292.5 838.5L448.5 682.5" stroke-width="6.5" stroke="rgba(0, 0, 0, 1)"></path><path d="M282.75 838.5 a9.75 9.75 0 1 0 19.5 0 a9.75 9.75 0 1 0 -19.5 0zM438.75 682.5 a9.75 9.75 0 1 0 19.5 0 a9.75 9.75 0 1 0 -19.5 0z" fill="rgba(0, 0, 0, 1)"></path><path d="M331.5 1072.5L370.5 1033.5L370.5 994.5L409.5 955.5L448.5 955.5" stroke-width="6.5" stroke="rgba(0, 0, 0, 1)"></path><path d="M321.75 1072.5 a9.75 9.75 0 1 0 19.5 0 a9.75 9.75 0 1 0 -19.5 0zM438.75 955.5 a9.75 9.75 0 1 0 19.5 0 a9.75 9.75 0 1 0 -19.5 0z" fill="rgba(0, 0, 0, 1)"></path><path d="M1774.5 799.5L1774.5 721.5L1813.5 682.5L1852.5 682.5" stroke-width="6.5" stroke="rgba(0, 0, 0, 1)"></path><path d="M1764.75 799.5 a9.75 9.75 0 1 0 19.5 0 a9.75 9.75 0 1 0 -19.5 0zM1842.75 682.5 a9.75 9.75 0 1 0 19.5 0 a9.75 9.75 0 1 0 -19.5 0z" fill="rgba(0, 0, 0, 1)"></path><path d="M643.5 604.5L799.5 604.5L994.5 409.5L994.5 370.5L916.5 292.5L643.5 292.5" stroke-width="6.5" stroke="rgba(0, 0, 0, 1)"></path><path d="M633.75 604.5 a9.75 9.75 0 1 0 19.5 0 a9.75 9.75 0 1 0 -19.5 0zM633.75 292.5 a9.75 9.75 0 1 0 19.5 0 a9.75 9.75 0 1 0 -19.5 0z" fill="rgba(0, 0, 0, 1)"></path><path d="M1813.5 331.5L1852.5 370.5L1852.5 409.5L1813.5 448.5L1618.5 448.5" stroke-width="6.5" stroke="rgba(0, 0, 0, 1)"></path><path d="M1803.75 331.5 a9.75 9.75 0 1 0 19.5 0 a9.75 9.75 0 1 0 -19.5 0zM1608.75 448.5 a9.75 9.75 0 1 0 19.5 0 a9.75 9.75 0 1 0 -19.5 0z" fill="rgba(0, 0, 0, 1)"></path><path d="M838.5 409.5L916.5 331.5" stroke-width="6.5" stroke="rgba(0, 0, 0, 1)"></path><path d="M828.75 409.5 a9.75 9.75 0 1 0 19.5 0 a9.75 9.75 0 1 0 -19.5 0zM906.75 331.5 a9.75 9.75 0 1 0 19.5 0 a9.75 9.75 0 1 0 -19.5 0z" fill="rgba(0, 0, 0, 1)"></path><path d="M58.5 487.5L136.5 487.5" stroke-width="6.5" stroke="rgba(0, 0, 0, 1)"></path><path d="M48.75 487.5 a9.75 9.75 0 1 0 19.5 0 a9.75 9.75 0 1 0 -19.5 0zM126.75 487.5 a9.75 9.75 0 1 0 19.5 0 a9.75 9.75 0 1 0 -19.5 0z" fill="rgba(0, 0, 0, 1)"></path><path d="M526.5 604.5L526.5 682.5" stroke-width="6.5" stroke="rgba(0, 0, 0, 1)"></path><path d="M516.75 604.5 a9.75 9.75 0 1 0 19.5 0 a9.75 9.75 0 1 0 -19.5 0zM516.75 682.5 a9.75 9.75 0 1 0 19.5 0 a9.75 9.75 0 1 0 -19.5 0z" fill="rgba(0, 0, 0, 1)"></path><path d="M1267.5 799.5L1345.5 799.5" stroke-width="6.5" stroke="rgba(0, 0, 0, 1)"></path><path d="M1257.75 799.5 a9.75 9.75 0 1 0 19.5 0 a9.75 9.75 0 1 0 -19.5 0zM1335.75 799.5 a9.75 9.75 0 1 0 19.5 0 a9.75 9.75 0 1 0 -19.5 0z" fill="rgba(0, 0, 0, 1)"></path><path d="M955.5 994.5L1033.5 994.5" stroke-width="6.5" stroke="rgba(0, 0, 0, 1)"></path><path d="M945.75 994.5 a9.75 9.75 0 1 0 19.5 0 a9.75 9.75 0 1 0 -19.5 0zM1023.75 994.5 a9.75 9.75 0 1 0 19.5 0 a9.75 9.75 0 1 0 -19.5 0z" fill="rgba(0, 0, 0, 1)"></path><path d="M682.5 565.5L799.5 565.5L955.5 409.5L955.5 370.5" stroke-width="6.5" stroke="rgba(0, 0, 0, 1)"></path><path d="M672.75 565.5 a9.75 9.75 0 1 0 19.5 0 a9.75 9.75 0 1 0 -19.5 0zM945.75 370.5 a9.75 9.75 0 1 0 19.5 0 a9.75 9.75 0 1 0 -19.5 0z" fill="rgba(0, 0, 0, 1)"></path><path d="M1228.5 331.5L1228.5 214.5" stroke-width="6.5" stroke="rgba(0, 0, 0, 1)"></path><path d="M1218.75 331.5 a9.75 9.75 0 1 0 19.5 0 a9.75 9.75 0 1 0 -19.5 0zM1218.75 214.5 a9.75 9.75 0 1 0 19.5 0 a9.75 9.75 0 1 0 -19.5 0z" fill="rgba(0, 0, 0, 1)"></path><path d="M1189.5 1189.5L1189.5 1111.5" stroke-width="6.5" stroke="rgba(0, 0, 0, 1)"></path><path d="M1179.75 1189.5 a9.75 9.75 0 1 0 19.5 0 a9.75 9.75 0 1 0 -19.5 0zM1179.75 1111.5 a9.75 9.75 0 1 0 19.5 0 a9.75 9.75 0 1 0 -19.5 0z" fill="rgba(0, 0, 0, 1)"></path><path d="M1852.5 955.5L1930.5 955.5" stroke-width="6.5" stroke="rgba(0, 0, 0, 1)"></path><path d="M1842.75 955.5 a9.75 9.75 0 1 0 19.5 0 a9.75 9.75 0 1 0 -19.5 0zM1920.75 955.5 a9.75 9.75 0 1 0 19.5 0 a9.75 9.75 0 1 0 -19.5 0z" fill="rgba(0, 0, 0, 1)"></path><path d="M1930.5 97.5L1930.5 19.5" stroke-width="6.5" stroke="rgba(0, 0, 0, 1)"></path><path d="M1920.75 97.5 a9.75 9.75 0 1 0 19.5 0 a9.75 9.75 0 1 0 -19.5 0zM1920.75 19.5 a9.75 9.75 0 1 0 19.5 0 a9.75 9.75 0 1 0 -19.5 0z" fill="rgba(0, 0, 0, 1)"></path><path d="M1267.5 1150.5L1267.5 1033.5" stroke-width="6.5" stroke="rgba(0, 0, 0, 1)"></path><path d="M1257.75 1150.5 a9.75 9.75 0 1 0 19.5 0 a9.75 9.75 0 1 0 -19.5 0zM1257.75 1033.5 a9.75 9.75 0 1 0 19.5 0 a9.75 9.75 0 1 0 -19.5 0z" fill="rgba(0, 0, 0, 1)"></path><path d="M877.5 448.5L799.5 526.5L643.5 526.5L604.5 565.5L604.5 604.5" stroke-width="6.5" stroke="rgba(0, 0, 0, 1)"></path><path d="M867.75 448.5 a9.75 9.75 0 1 0 19.5 0 a9.75 9.75 0 1 0 -19.5 0zM594.75 604.5 a9.75 9.75 0 1 0 19.5 0 a9.75 9.75 0 1 0 -19.5 0z" fill="rgba(0, 0, 0, 1)"></path><path d="M136.5 565.5L136.5 604.5L175.5 643.5L175.5 799.5" stroke-width="6.5" stroke="rgba(0, 0, 0, 1)"></path><path d="M126.75 565.5 a9.75 9.75 0 1 0 19.5 0 a9.75 9.75 0 1 0 -19.5 0zM165.75 799.5 a9.75 9.75 0 1 0 19.5 0 a9.75 9.75 0 1 0 -19.5 0z" fill="rgba(0, 0, 0, 1)"></path><path d="M370.5 604.5L292.5 682.5L292.5 799.5" stroke-width="6.5" stroke="rgba(0, 0, 0, 1)"></path><path d="M360.75 604.5 a9.75 9.75 0 1 0 19.5 0 a9.75 9.75 0 1 0 -19.5 0zM282.75 799.5 a9.75 9.75 0 1 0 19.5 0 a9.75 9.75 0 1 0 -19.5 0z" fill="rgba(0, 0, 0, 1)"></path><path d="M58.5 175.5L97.5 214.5L97.5 253.5" stroke-width="6.5" stroke="rgba(0, 0, 0, 1)"></path><path d="M48.75 175.5 a9.75 9.75 0 1 0 19.5 0 a9.75 9.75 0 1 0 -19.5 0zM87.75 253.5 a9.75 9.75 0 1 0 19.5 0 a9.75 9.75 0 1 0 -19.5 0z" fill="rgba(0, 0, 0, 1)"></path><path d="M1696.5 1111.5L1618.5 1033.5L1618.5 994.5" stroke-width="6.5" stroke="rgba(0, 0, 0, 1)"></path><path d="M1686.75 1111.5 a9.75 9.75 0 1 0 19.5 0 a9.75 9.75 0 1 0 -19.5 0zM1608.75 994.5 a9.75 9.75 0 1 0 19.5 0 a9.75 9.75 0 1 0 -19.5 0z" fill="rgba(0, 0, 0, 1)"></path><path d="M1423.5 331.5L1462.5 292.5L1462.5 175.5" stroke-width="6.5" stroke="rgba(0, 0, 0, 1)"></path><path d="M1413.75 331.5 a9.75 9.75 0 1 0 19.5 0 a9.75 9.75 0 1 0 -19.5 0zM1452.75 175.5 a9.75 9.75 0 1 0 19.5 0 a9.75 9.75 0 1 0 -19.5 0z" fill="rgba(0, 0, 0, 1)"></path><path d="M1696.5 955.5L1657.5 955.5L1618.5 916.5" stroke-width="6.5" stroke="rgba(0, 0, 0, 1)"></path><path d="M1686.75 955.5 a9.75 9.75 0 1 0 19.5 0 a9.75 9.75 0 1 0 -19.5 0zM1608.75 916.5 a9.75 9.75 0 1 0 19.5 0 a9.75 9.75 0 1 0 -19.5 0z" fill="rgba(0, 0, 0, 1)"></path><path d="M1150.5 526.5L1150.5 565.5L1072.5 643.5L1072.5 682.5L1150.5 760.5" stroke-width="6.5" stroke="rgba(0, 0, 0, 1)"></path><path d="M1140.75 526.5 a9.75 9.75 0 1 0 19.5 0 a9.75 9.75 0 1 0 -19.5 0zM1140.75 760.5 a9.75 9.75 0 1 0 19.5 0 a9.75 9.75 0 1 0 -19.5 0z" fill="rgba(0, 0, 0, 1)"></path><path d="M1852.5 1072.5L1813.5 1111.5L1735.5 1111.5" stroke-width="6.5" stroke="rgba(0, 0, 0, 1)"></path><path d="M1842.75 1072.5 a9.75 9.75 0 1 0 19.5 0 a9.75 9.75 0 1 0 -19.5 0zM1725.75 1111.5 a9.75 9.75 0 1 0 19.5 0 a9.75 9.75 0 1 0 -19.5 0z" fill="rgba(0, 0, 0, 1)"></path><path d="M1930.5 838.5L1930.5 916.5" stroke-width="6.5" stroke="rgba(0, 0, 0, 1)"></path><path d="M1920.75 838.5 a9.75 9.75 0 1 0 19.5 0 a9.75 9.75 0 1 0 -19.5 0zM1920.75 916.5 a9.75 9.75 0 1 0 19.5 0 a9.75 9.75 0 1 0 -19.5 0z" fill="rgba(0, 0, 0, 1)"></path><path d="M1267.5 1189.5L1306.5 1150.5L1306.5 1033.5" stroke-width="6.5" stroke="rgba(0, 0, 0, 1)"></path><path d="M1257.75 1189.5 a9.75 9.75 0 1 0 19.5 0 a9.75 9.75 0 1 0 -19.5 0zM1296.75 1033.5 a9.75 9.75 0 1 0 19.5 0 a9.75 9.75 0 1 0 -19.5 0z" fill="rgba(0, 0, 0, 1)"></path><path d="M1852.5 916.5L1852.5 721.5" stroke-width="6.5" stroke="rgba(0, 0, 0, 1)"></path><path d="M1842.75 916.5 a9.75 9.75 0 1 0 19.5 0 a9.75 9.75 0 1 0 -19.5 0zM1842.75 721.5 a9.75 9.75 0 1 0 19.5 0 a9.75 9.75 0 1 0 -19.5 0z" fill="rgba(0, 0, 0, 1)"></path><path d="M1072.5 175.5L1033.5 214.5L1033.5 253.5" stroke-width="6.5" stroke="rgba(0, 0, 0, 1)"></path><path d="M1062.75 175.5 a9.75 9.75 0 1 0 19.5 0 a9.75 9.75 0 1 0 -19.5 0zM1023.75 253.5 a9.75 9.75 0 1 0 19.5 0 a9.75 9.75 0 1 0 -19.5 0z" fill="rgba(0, 0, 0, 1)"></path><path d="M1735.5 643.5L1774.5 604.5L1774.5 565.5" stroke-width="6.5" stroke="rgba(0, 0, 0, 1)"></path><path d="M1725.75 643.5 a9.75 9.75 0 1 0 19.5 0 a9.75 9.75 0 1 0 -19.5 0zM1764.75 565.5 a9.75 9.75 0 1 0 19.5 0 a9.75 9.75 0 1 0 -19.5 0z" fill="rgba(0, 0, 0, 1)"></path><path d="M1852.5 97.5L1852.5 19.5" stroke-width="6.5" stroke="rgba(0, 0, 0, 1)"></path><path d="M1842.75 97.5 a9.75 9.75 0 1 0 19.5 0 a9.75 9.75 0 1 0 -19.5 0zM1842.75 19.5 a9.75 9.75 0 1 0 19.5 0 a9.75 9.75 0 1 0 -19.5 0z" fill="rgba(0, 0, 0, 1)"></path><path d="M760.5 487.5L682.5 487.5L643.5 448.5L604.5 448.5L565.5 487.5L565.5 526.5" stroke-width="6.5" stroke="rgba(0, 0, 0, 1)"></path><path d="M750.75 487.5 a9.75 9.75 0 1 0 19.5 0 a9.75 9.75 0 1 0 -19.5 0zM555.75 526.5 a9.75 9.75 0 1 0 19.5 0 a9.75 9.75 0 1 0 -19.5 0z" fill="rgba(0, 0, 0, 1)"></path><path d="M1813.5 175.5L1696.5 58.5" stroke-width="6.5" stroke="rgba(0, 0, 0, 1)"></path><path d="M1803.75 175.5 a9.75 9.75 0 1 0 19.5 0 a9.75 9.75 0 1 0 -19.5 0zM1686.75 58.5 a9.75 9.75 0 1 0 19.5 0 a9.75 9.75 0 1 0 -19.5 0z" fill="rgba(0, 0, 0, 1)"></path><path d="M682.5 838.5L721.5 877.5L721.5 916.5" stroke-width="6.5" stroke="rgba(0, 0, 0, 1)"></path><path d="M672.75 838.5 a9.75 9.75 0 1 0 19.5 0 a9.75 9.75 0 1 0 -19.5 0zM711.75 916.5 a9.75 9.75 0 1 0 19.5 0 a9.75 9.75 0 1 0 -19.5 0z" fill="rgba(0, 0, 0, 1)"></path><path d="M370.5 682.5L331.5 721.5L331.5 760.5" stroke-width="6.5" stroke="rgba(0, 0, 0, 1)"></path><path d="M360.75 682.5 a9.75 9.75 0 1 0 19.5 0 a9.75 9.75 0 1 0 -19.5 0zM321.75 760.5 a9.75 9.75 0 1 0 19.5 0 a9.75 9.75 0 1 0 -19.5 0z" fill="rgba(0, 0, 0, 1)"></path><path d="M526.5 19.5L409.5 19.5" stroke-width="6.5" stroke="rgba(0, 0, 0, 1)"></path><path d="M516.75 19.5 a9.75 9.75 0 1 0 19.5 0 a9.75 9.75 0 1 0 -19.5 0zM399.75 19.5 a9.75 9.75 0 1 0 19.5 0 a9.75 9.75 0 1 0 -19.5 0z" fill="rgba(0, 0, 0, 1)"></path><path d="M1384.5 487.5L1267.5 487.5" stroke-width="6.5" stroke="rgba(0, 0, 0, 1)"></path><path d="M1374.75 487.5 a9.75 9.75 0 1 0 19.5 0 a9.75 9.75 0 1 0 -19.5 0zM1257.75 487.5 a9.75 9.75 0 1 0 19.5 0 a9.75 9.75 0 1 0 -19.5 0z" fill="rgba(0, 0, 0, 1)"></path><path d="M721.5 370.5L838.5 370.5" stroke-width="6.5" stroke="rgba(0, 0, 0, 1)"></path><path d="M711.75 370.5 a9.75 9.75 0 1 0 19.5 0 a9.75 9.75 0 1 0 -19.5 0zM828.75 370.5 a9.75 9.75 0 1 0 19.5 0 a9.75 9.75 0 1 0 -19.5 0z" fill="rgba(0, 0, 0, 1)"></path><path d="M604.5 1228.5L799.5 1033.5" stroke-width="6.5" stroke="rgba(0, 0, 0, 1)"></path><path d="M594.75 1228.5 a9.75 9.75 0 1 0 19.5 0 a9.75 9.75 0 1 0 -19.5 0zM789.75 1033.5 a9.75 9.75 0 1 0 19.5 0 a9.75 9.75 0 1 0 -19.5 0z" fill="rgba(0, 0, 0, 1)"></path><path d="M1657.5 760.5L1618.5 760.5L1540.5 838.5" stroke-width="6.5" stroke="rgba(0, 0, 0, 1)"></path><path d="M1647.75 760.5 a9.75 9.75 0 1 0 19.5 0 a9.75 9.75 0 1 0 -19.5 0zM1530.75 838.5 a9.75 9.75 0 1 0 19.5 0 a9.75 9.75 0 1 0 -19.5 0z" fill="rgba(0, 0, 0, 1)"></path><path d="M292.5 136.5L331.5 136.5L370.5 175.5L370.5 214.5" stroke-width="6.5" stroke="rgba(0, 0, 0, 1)"></path><path d="M282.75 136.5 a9.75 9.75 0 1 0 19.5 0 a9.75 9.75 0 1 0 -19.5 0zM360.75 214.5 a9.75 9.75 0 1 0 19.5 0 a9.75 9.75 0 1 0 -19.5 0z" fill="rgba(0, 0, 0, 1)"></path><path d="M1930.5 799.5L1930.5 604.5" stroke-width="6.5" stroke="rgba(0, 0, 0, 1)"></path><path d="M1920.75 799.5 a9.75 9.75 0 1 0 19.5 0 a9.75 9.75 0 1 0 -19.5 0zM1920.75 604.5 a9.75 9.75 0 1 0 19.5 0 a9.75 9.75 0 1 0 -19.5 0z" fill="rgba(0, 0, 0, 1)"></path><path d="M760.5 1228.5L721.5 1189.5L721.5 1150.5L760.5 1111.5L799.5 1111.5" stroke-width="6.5" stroke="rgba(0, 0, 0, 1)"></path><path d="M750.75 1228.5 a9.75 9.75 0 1 0 19.5 0 a9.75 9.75 0 1 0 -19.5 0zM789.75 1111.5 a9.75 9.75 0 1 0 19.5 0 a9.75 9.75 0 1 0 -19.5 0z" fill="rgba(0, 0, 0, 1)"></path><path d="M1735.5 799.5L1696.5 799.5L1657.5 838.5" stroke-width="6.5" stroke="rgba(0, 0, 0, 1)"></path><path d="M1725.75 799.5 a9.75 9.75 0 1 0 19.5 0 a9.75 9.75 0 1 0 -19.5 0zM1647.75 838.5 a9.75 9.75 0 1 0 19.5 0 a9.75 9.75 0 1 0 -19.5 0z" fill="rgba(0, 0, 0, 1)"></path><path d="M1618.5 604.5L1501.5 604.5" stroke-width="6.5" stroke="rgba(0, 0, 0, 1)"></path><path d="M1608.75 604.5 a9.75 9.75 0 1 0 19.5 0 a9.75 9.75 0 1 0 -19.5 0zM1491.75 604.5 a9.75 9.75 0 1 0 19.5 0 a9.75 9.75 0 1 0 -19.5 0z" fill="rgba(0, 0, 0, 1)"></path><path d="M19.5 1228.5L97.5 1228.5" stroke-width="6.5" stroke="rgba(0, 0, 0, 1)"></path><path d="M9.75 1228.5 a9.75 9.75 0 1 0 19.5 0 a9.75 9.75 0 1 0 -19.5 0zM87.75 1228.5 a9.75 9.75 0 1 0 19.5 0 a9.75 9.75 0 1 0 -19.5 0z" fill="rgba(0, 0, 0, 1)"></path><path d="M1150.5 370.5L1189.5 331.5L1189.5 253.5" stroke-width="6.5" stroke="rgba(0, 0, 0, 1)"></path><path d="M1140.75 370.5 a9.75 9.75 0 1 0 19.5 0 a9.75 9.75 0 1 0 -19.5 0zM1179.75 253.5 a9.75 9.75 0 1 0 19.5 0 a9.75 9.75 0 1 0 -19.5 0z" fill="rgba(0, 0, 0, 1)"></path><path d="M799.5 331.5L721.5 331.5" stroke-width="6.5" stroke="rgba(0, 0, 0, 1)"></path><path d="M789.75 331.5 a9.75 9.75 0 1 0 19.5 0 a9.75 9.75 0 1 0 -19.5 0zM711.75 331.5 a9.75 9.75 0 1 0 19.5 0 a9.75 9.75 0 1 0 -19.5 0z" fill="rgba(0, 0, 0, 1)"></path><path d="M331.5 877.5L331.5 916.5L253.5 994.5" stroke-width="6.5" stroke="rgba(0, 0, 0, 1)"></path><path d="M321.75 877.5 a9.75 9.75 0 1 0 19.5 0 a9.75 9.75 0 1 0 -19.5 0zM243.75 994.5 a9.75 9.75 0 1 0 19.5 0 a9.75 9.75 0 1 0 -19.5 0z" fill="rgba(0, 0, 0, 1)"></path><path d="M1540.5 1111.5L1501.5 1111.5L1462.5 1150.5L1462.5 1189.5" stroke-width="6.5" stroke="rgba(0, 0, 0, 1)"></path><path d="M1530.75 1111.5 a9.75 9.75 0 1 0 19.5 0 a9.75 9.75 0 1 0 -19.5 0zM1452.75 1189.5 a9.75 9.75 0 1 0 19.5 0 a9.75 9.75 0 1 0 -19.5 0z" fill="rgba(0, 0, 0, 1)"></path><path d="M1696.5 643.5L1696.5 565.5" stroke-width="6.5" stroke="rgba(0, 0, 0, 1)"></path><path d="M1686.75 643.5 a9.75 9.75 0 1 0 19.5 0 a9.75 9.75 0 1 0 -19.5 0zM1686.75 565.5 a9.75 9.75 0 1 0 19.5 0 a9.75 9.75 0 1 0 -19.5 0z" fill="rgba(0, 0, 0, 1)"></path><path d="M175.5 1111.5L175.5 1033.5" stroke-width="6.5" stroke="rgba(0, 0, 0, 1)"></path><path d="M165.75 1111.5 a9.75 9.75 0 1 0 19.5 0 a9.75 9.75 0 1 0 -19.5 0zM165.75 1033.5 a9.75 9.75 0 1 0 19.5 0 a9.75 9.75 0 1 0 -19.5 0z" fill="rgba(0, 0, 0, 1)"></path><path d="M1384.5 409.5L1462.5 409.5" stroke-width="6.5" stroke="rgba(0, 0, 0, 1)"></path><path d="M1374.75 409.5 a9.75 9.75 0 1 0 19.5 0 a9.75 9.75 0 1 0 -19.5 0zM1452.75 409.5 a9.75 9.75 0 1 0 19.5 0 a9.75 9.75 0 1 0 -19.5 0z" fill="rgba(0, 0, 0, 1)"></path><path d="M1579.5 214.5L1579.5 175.5L1657.5 97.5L1696.5 97.5L1735.5 136.5L1735.5 175.5L1813.5 253.5L1852.5 253.5" stroke-width="6.5" stroke="rgba(0, 0, 0, 1)"></path><path d="M1569.75 214.5 a9.75 9.75 0 1 0 19.5 0 a9.75 9.75 0 1 0 -19.5 0zM1842.75 253.5 a9.75 9.75 0 1 0 19.5 0 a9.75 9.75 0 1 0 -19.5 0z" fill="rgba(0, 0, 0, 1)"></path><path d="M1774.5 838.5L1696.5 838.5" stroke-width="6.5" stroke="rgba(0, 0, 0, 1)"></path><path d="M1764.75 838.5 a9.75 9.75 0 1 0 19.5 0 a9.75 9.75 0 1 0 -19.5 0zM1686.75 838.5 a9.75 9.75 0 1 0 19.5 0 a9.75 9.75 0 1 0 -19.5 0z" fill="rgba(0, 0, 0, 1)"></path><path d="M1540.5 19.5L1618.5 19.5" stroke-width="6.5" stroke="rgba(0, 0, 0, 1)"></path><path d="M1530.75 19.5 a9.75 9.75 0 1 0 19.5 0 a9.75 9.75 0 1 0 -19.5 0zM1608.75 19.5 a9.75 9.75 0 1 0 19.5 0 a9.75 9.75 0 1 0 -19.5 0z" fill="rgba(0, 0, 0, 1)"></path><path d="M1813.5 1228.5L1930.5 1228.5" stroke-width="6.5" stroke="rgba(0, 0, 0, 1)"></path><path d="M1803.75 1228.5 a9.75 9.75 0 1 0 19.5 0 a9.75 9.75 0 1 0 -19.5 0zM1920.75 1228.5 a9.75 9.75 0 1 0 19.5 0 a9.75 9.75 0 1 0 -19.5 0z" fill="rgba(0, 0, 0, 1)"></path><path d="M916.5 994.5L916.5 1150.5L877.5 1189.5" stroke-width="6.5" stroke="rgba(0, 0, 0, 1)"></path><path d="M906.75 994.5 a9.75 9.75 0 1 0 19.5 0 a9.75 9.75 0 1 0 -19.5 0zM867.75 1189.5 a9.75 9.75 0 1 0 19.5 0 a9.75 9.75 0 1 0 -19.5 0z" fill="rgba(0, 0, 0, 1)"></path><path d="M1033.5 916.5L1072.5 955.5L1111.5 955.5" stroke-width="6.5" stroke="rgba(0, 0, 0, 1)"></path><path d="M1023.75 916.5 a9.75 9.75 0 1 0 19.5 0 a9.75 9.75 0 1 0 -19.5 0zM1101.75 955.5 a9.75 9.75 0 1 0 19.5 0 a9.75 9.75 0 1 0 -19.5 0z" fill="rgba(0, 0, 0, 1)"></path><path d="M1306.5 409.5L1423.5 292.5L1423.5 253.5" stroke-width="6.5" stroke="rgba(0, 0, 0, 1)"></path><path d="M1296.75 409.5 a9.75 9.75 0 1 0 19.5 0 a9.75 9.75 0 1 0 -19.5 0zM1413.75 253.5 a9.75 9.75 0 1 0 19.5 0 a9.75 9.75 0 1 0 -19.5 0z" fill="rgba(0, 0, 0, 1)"></path><path d="M1579.5 292.5L1579.5 253.5L1696.5 136.5" stroke-width="6.5" stroke="rgba(0, 0, 0, 1)"></path><path d="M1569.75 292.5 a9.75 9.75 0 1 0 19.5 0 a9.75 9.75 0 1 0 -19.5 0zM1686.75 136.5 a9.75 9.75 0 1 0 19.5 0 a9.75 9.75 0 1 0 -19.5 0z" fill="rgba(0, 0, 0, 1)"></path><path d="M877.5 1072.5L877.5 1150.5" stroke-width="6.5" stroke="rgba(0, 0, 0, 1)"></path><path d="M867.75 1072.5 a9.75 9.75 0 1 0 19.5 0 a9.75 9.75 0 1 0 -19.5 0zM867.75 1150.5 a9.75 9.75 0 1 0 19.5 0 a9.75 9.75 0 1 0 -19.5 0z" fill="rgba(0, 0, 0, 1)"></path><path d="M97.5 877.5L58.5 916.5L58.5 955.5" stroke-width="6.5" stroke="rgba(0, 0, 0, 1)"></path><path d="M87.75 877.5 a9.75 9.75 0 1 0 19.5 0 a9.75 9.75 0 1 0 -19.5 0zM48.75 955.5 a9.75 9.75 0 1 0 19.5 0 a9.75 9.75 0 1 0 -19.5 0z" fill="rgba(0, 0, 0, 1)"></path><path d="M1618.5 292.5L1618.5 253.5L1657.5 214.5" stroke-width="6.5" stroke="rgba(0, 0, 0, 1)"></path><path d="M1608.75 292.5 a9.75 9.75 0 1 0 19.5 0 a9.75 9.75 0 1 0 -19.5 0zM1647.75 214.5 a9.75 9.75 0 1 0 19.5 0 a9.75 9.75 0 1 0 -19.5 0z" fill="rgba(0, 0, 0, 1)"></path><path d="M1735.5 994.5L1735.5 916.5" stroke-width="6.5" stroke="rgba(0, 0, 0, 1)"></path><path d="M1725.75 994.5 a9.75 9.75 0 1 0 19.5 0 a9.75 9.75 0 1 0 -19.5 0zM1725.75 916.5 a9.75 9.75 0 1 0 19.5 0 a9.75 9.75 0 1 0 -19.5 0z" fill="rgba(0, 0, 0, 1)"></path><path d="M175.5 58.5L136.5 97.5L136.5 136.5" stroke-width="6.5" stroke="rgba(0, 0, 0, 1)"></path><path d="M165.75 58.5 a9.75 9.75 0 1 0 19.5 0 a9.75 9.75 0 1 0 -19.5 0zM126.75 136.5 a9.75 9.75 0 1 0 19.5 0 a9.75 9.75 0 1 0 -19.5 0z" fill="rgba(0, 0, 0, 1)"></path><path d="M1540.5 1150.5L1579.5 1150.5L1618.5 1111.5L1657.5 1111.5" stroke-width="6.5" stroke="rgba(0, 0, 0, 1)"></path><path d="M1530.75 1150.5 a9.75 9.75 0 1 0 19.5 0 a9.75 9.75 0 1 0 -19.5 0zM1647.75 1111.5 a9.75 9.75 0 1 0 19.5 0 a9.75 9.75 0 1 0 -19.5 0z" fill="rgba(0, 0, 0, 1)"></path><path d="M19.5 214.5L19.5 136.5" stroke-width="6.5" stroke="rgba(0, 0, 0, 1)"></path><path d="M9.75 214.5 a9.75 9.75 0 1 0 19.5 0 a9.75 9.75 0 1 0 -19.5 0zM9.75 136.5 a9.75 9.75 0 1 0 19.5 0 a9.75 9.75 0 1 0 -19.5 0z" fill="rgba(0, 0, 0, 1)"></path><path d="M448.5 1072.5L448.5 1111.5L409.5 1150.5" stroke-width="6.5" stroke="rgba(0, 0, 0, 1)"></path><path d="M438.75 1072.5 a9.75 9.75 0 1 0 19.5 0 a9.75 9.75 0 1 0 -19.5 0zM399.75 1150.5 a9.75 9.75 0 1 0 19.5 0 a9.75 9.75 0 1 0 -19.5 0z" fill="rgba(0, 0, 0, 1)"></path><path d="M175.5 409.5L97.5 409.5" stroke-width="6.5" stroke="rgba(0, 0, 0, 1)"></path><path d="M165.75 409.5 a9.75 9.75 0 1 0 19.5 0 a9.75 9.75 0 1 0 -19.5 0zM87.75 409.5 a9.75 9.75 0 1 0 19.5 0 a9.75 9.75 0 1 0 -19.5 0z" fill="rgba(0, 0, 0, 1)"></path><path d="M1501.5 799.5L1579.5 721.5" stroke-width="6.5" stroke="rgba(0, 0, 0, 1)"></path><path d="M1491.75 799.5 a9.75 9.75 0 1 0 19.5 0 a9.75 9.75 0 1 0 -19.5 0zM1569.75 721.5 a9.75 9.75 0 1 0 19.5 0 a9.75 9.75 0 1 0 -19.5 0z" fill="rgba(0, 0, 0, 1)"></path><path d="M1501.5 916.5L1345.5 916.5" stroke-width="6.5" stroke="rgba(0, 0, 0, 1)"></path><path d="M1491.75 916.5 a9.75 9.75 0 1 0 19.5 0 a9.75 9.75 0 1 0 -19.5 0zM1335.75 916.5 a9.75 9.75 0 1 0 19.5 0 a9.75 9.75 0 1 0 -19.5 0z" fill="rgba(0, 0, 0, 1)"></path><path d="M1696.5 1228.5L1735.5 1189.5L1813.5 1189.5" stroke-width="6.5" stroke="rgba(0, 0, 0, 1)"></path><path d="M1686.75 1228.5 a9.75 9.75 0 1 0 19.5 0 a9.75 9.75 0 1 0 -19.5 0zM1803.75 1189.5 a9.75 9.75 0 1 0 19.5 0 a9.75 9.75 0 1 0 -19.5 0z" fill="rgba(0, 0, 0, 1)"></path><path d="M682.5 877.5L643.5 916.5L604.5 916.5" stroke-width="6.5" stroke="rgba(0, 0, 0, 1)"></path><path d="M672.75 877.5 a9.75 9.75 0 1 0 19.5 0 a9.75 9.75 0 1 0 -19.5 0zM594.75 916.5 a9.75 9.75 0 1 0 19.5 0 a9.75 9.75 0 1 0 -19.5 0z" fill="rgba(0, 0, 0, 1)"></path><path d="M994.5 97.5L1072.5 97.5" stroke-width="6.5" stroke="rgba(0, 0, 0, 1)"></path><path d="M984.75 97.5 a9.75 9.75 0 1 0 19.5 0 a9.75 9.75 0 1 0 -19.5 0zM1062.75 97.5 a9.75 9.75 0 1 0 19.5 0 a9.75 9.75 0 1 0 -19.5 0z" fill="rgba(0, 0, 0, 1)"></path></g></g><defs><mask id="SvgjsMask1911"><rect width="1920" height="1240" fill="#ffffff"></rect></mask><radialGradient cx="0%" cy="0%" r="2285.61" gradientUnits="userSpaceOnUse" id="SvgjsRadialGradient1912"><stop stop-color="#0e2a47" offset="0"></stop><stop stop-color="rgba(255, 255, 255, 1)" offset="1"></stop></radialGradient><mask id="SvgjsMask1913"><rect width="1920" height="1240" fill="white"></rect><path d="M1730.62 1072.5 a4.88 4.88 0 1 0 9.76 0 a4.88 4.88 0 1 0 -9.76 0zM989.62 487.5 a4.88 4.88 0 1 0 9.76 0 a4.88 4.88 0 1 0 -9.76 0z" fill="black"></path><path d="M131.62 214.5 a4.88 4.88 0 1 0 9.76 0 a4.88 4.88 0 1 0 -9.76 0zM14.62 19.5 a4.88 4.88 0 1 0 9.76 0 a4.88 4.88 0 1 0 -9.76 0z" fill="black"></path><path d="M287.62 1111.5 a4.88 4.88 0 1 0 9.76 0 a4.88 4.88 0 1 0 -9.76 0zM326.62 370.5 a4.88 4.88 0 1 0 9.76 0 a4.88 4.88 0 1 0 -9.76 0z" fill="black"></path><path d="M1691.62 175.5 a4.88 4.88 0 1 0 9.76 0 a4.88 4.88 0 1 0 -9.76 0zM1886.62 916.5 a4.88 4.88 0 1 0 9.76 0 a4.88 4.88 0 1 0 -9.76 0z" fill="black"></path><path d="M248.62 604.5 a4.88 4.88 0 1 0 9.76 0 a4.88 4.88 0 1 0 -9.76 0zM872.62 19.5 a4.88 4.88 0 1 0 9.76 0 a4.88 4.88 0 1 0 -9.76 0z" fill="black"></path><path d="M1340.62 1228.5 a4.88 4.88 0 1 0 9.76 0 a4.88 4.88 0 1 0 -9.76 0zM1106.62 877.5 a4.88 4.88 0 1 0 9.76 0 a4.88 4.88 0 1 0 -9.76 0z" fill="black"></path><path d="M443.62 214.5 a4.88 4.88 0 1 0 9.76 0 a4.88 4.88 0 1 0 -9.76 0zM14.62 331.5 a4.88 4.88 0 1 0 9.76 0 a4.88 4.88 0 1 0 -9.76 0z" fill="black"></path><path d="M521.62 1228.5 a4.88 4.88 0 1 0 9.76 0 a4.88 4.88 0 1 0 -9.76 0zM1106.62 526.5 a4.88 4.88 0 1 0 9.76 0 a4.88 4.88 0 1 0 -9.76 0z" fill="black"></path><path d="M1691.62 682.5 a4.88 4.88 0 1 0 9.76 0 a4.88 4.88 0 1 0 -9.76 0zM950.62 253.5 a4.88 4.88 0 1 0 9.76 0 a4.88 4.88 0 1 0 -9.76 0z" fill="black"></path><path d="M287.62 19.5 a4.88 4.88 0 1 0 9.76 0 a4.88 4.88 0 1 0 -9.76 0zM131.62 175.5 a4.88 4.88 0 1 0 9.76 0 a4.88 4.88 0 1 0 -9.76 0z" fill="black"></path><path d="M989.62 175.5 a4.88 4.88 0 1 0 9.76 0 a4.88 4.88 0 1 0 -9.76 0zM1652.62 643.5 a4.88 4.88 0 1 0 9.76 0 a4.88 4.88 0 1 0 -9.76 0z" fill="black"></path><path d="M1184.62 136.5 a4.88 4.88 0 1 0 9.76 0 a4.88 4.88 0 1 0 -9.76 0zM1301.62 19.5 a4.88 4.88 0 1 0 9.76 0 a4.88 4.88 0 1 0 -9.76 0z" fill="black"></path><path d="M1535.62 175.5 a4.88 4.88 0 1 0 9.76 0 a4.88 4.88 0 1 0 -9.76 0zM1925.62 565.5 a4.88 4.88 0 1 0 9.76 0 a4.88 4.88 0 1 0 -9.76 0z" fill="black"></path><path d="M1145.62 604.5 a4.88 4.88 0 1 0 9.76 0 a4.88 4.88 0 1 0 -9.76 0zM1457.62 838.5 a4.88 4.88 0 1 0 9.76 0 a4.88 4.88 0 1 0 -9.76 0z" fill="black"></path><path d="M950.62 526.5 a4.88 4.88 0 1 0 9.76 0 a4.88 4.88 0 1 0 -9.76 0zM248.62 1033.5 a4.88 4.88 0 1 0 9.76 0 a4.88 4.88 0 1 0 -9.76 0z" fill="black"></path><path d="M521.62 721.5 a4.88 4.88 0 1 0 9.76 0 a4.88 4.88 0 1 0 -9.76 0zM287.62 487.5 a4.88 4.88 0 1 0 9.76 0 a4.88 4.88 0 1 0 -9.76 0z" fill="black"></path><path d="M1652.62 1228.5 a4.88 4.88 0 1 0 9.76 0 a4.88 4.88 0 1 0 -9.76 0zM1925.62 1150.5 a4.88 4.88 0 1 0 9.76 0 a4.88 4.88 0 1 0 -9.76 0z" fill="black"></path><path d="M287.62 292.5 a4.88 4.88 0 1 0 9.76 0 a4.88 4.88 0 1 0 -9.76 0zM248.62 292.5 a4.88 4.88 0 1 0 9.76 0 a4.88 4.88 0 1 0 -9.76 0z" fill="black"></path><path d="M53.62 760.5 a4.88 4.88 0 1 0 9.76 0 a4.88 4.88 0 1 0 -9.76 0zM404.62 1228.5 a4.88 4.88 0 1 0 9.76 0 a4.88 4.88 0 1 0 -9.76 0z" fill="black"></path><path d="M1340.62 1150.5 a4.88 4.88 0 1 0 9.76 0 a4.88 4.88 0 1 0 -9.76 0zM1535.62 955.5 a4.88 4.88 0 1 0 9.76 0 a4.88 4.88 0 1 0 -9.76 0z" fill="black"></path><path d="M1301.62 526.5 a4.88 4.88 0 1 0 9.76 0 a4.88 4.88 0 1 0 -9.76 0zM1730.62 253.5 a4.88 4.88 0 1 0 9.76 0 a4.88 4.88 0 1 0 -9.76 0z" fill="black"></path><path d="M1730.62 721.5 a4.88 4.88 0 1 0 9.76 0 a4.88 4.88 0 1 0 -9.76 0zM1574.62 877.5 a4.88 4.88 0 1 0 9.76 0 a4.88 4.88 0 1 0 -9.76 0z" fill="black"></path><path d="M833.62 1072.5 a4.88 4.88 0 1 0 9.76 0 a4.88 4.88 0 1 0 -9.76 0zM833.62 1228.5 a4.88 4.88 0 1 0 9.76 0 a4.88 4.88 0 1 0 -9.76 0z" fill="black"></path><path d="M755.62 409.5 a4.88 4.88 0 1 0 9.76 0 a4.88 4.88 0 1 0 -9.76 0zM599.62 253.5 a4.88 4.88 0 1 0 9.76 0 a4.88 4.88 0 1 0 -9.76 0z" fill="black"></path><path d="M1847.62 448.5 a4.88 4.88 0 1 0 9.76 0 a4.88 4.88 0 1 0 -9.76 0zM1340.62 565.5 a4.88 4.88 0 1 0 9.76 0 a4.88 4.88 0 1 0 -9.76 0z" fill="black"></path><path d="M14.62 1189.5 a4.88 4.88 0 1 0 9.76 0 a4.88 4.88 0 1 0 -9.76 0zM131.62 1228.5 a4.88 4.88 0 1 0 9.76 0 a4.88 4.88 0 1 0 -9.76 0z" fill="black"></path><path d="M677.62 331.5 a4.88 4.88 0 1 0 9.76 0 a4.88 4.88 0 1 0 -9.76 0zM560.62 409.5 a4.88 4.88 0 1 0 9.76 0 a4.88 4.88 0 1 0 -9.76 0z" fill="black"></path><path d="M1769.62 916.5 a4.88 4.88 0 1 0 9.76 0 a4.88 4.88 0 1 0 -9.76 0zM1925.62 1111.5 a4.88 4.88 0 1 0 9.76 0 a4.88 4.88 0 1 0 -9.76 0z" fill="black"></path><path d="M482.62 175.5 a4.88 4.88 0 1 0 9.76 0 a4.88 4.88 0 1 0 -9.76 0zM677.62 19.5 a4.88 4.88 0 1 0 9.76 0 a4.88 4.88 0 1 0 -9.76 0z" fill="black"></path><path d="M170.62 1150.5 a4.88 4.88 0 1 0 9.76 0 a4.88 4.88 0 1 0 -9.76 0zM599.62 760.5 a4.88 4.88 0 1 0 9.76 0 a4.88 4.88 0 1 0 -9.76 0z" fill="black"></path><path d="M1184.62 643.5 a4.88 4.88 0 1 0 9.76 0 a4.88 4.88 0 1 0 -9.76 0zM1418.62 838.5 a4.88 4.88 0 1 0 9.76 0 a4.88 4.88 0 1 0 -9.76 0z" fill="black"></path><path d="M1106.62 19.5 a4.88 4.88 0 1 0 9.76 0 a4.88 4.88 0 1 0 -9.76 0zM1262.62 97.5 a4.88 4.88 0 1 0 9.76 0 a4.88 4.88 0 1 0 -9.76 0z" fill="black"></path><path d="M1496.62 448.5 a4.88 4.88 0 1 0 9.76 0 a4.88 4.88 0 1 0 -9.76 0zM1496.62 19.5 a4.88 4.88 0 1 0 9.76 0 a4.88 4.88 0 1 0 -9.76 0z" fill="black"></path><path d="M1301.62 370.5 a4.88 4.88 0 1 0 9.76 0 a4.88 4.88 0 1 0 -9.76 0zM1457.62 19.5 a4.88 4.88 0 1 0 9.76 0 a4.88 4.88 0 1 0 -9.76 0z" fill="black"></path><path d="M1613.62 1150.5 a4.88 4.88 0 1 0 9.76 0 a4.88 4.88 0 1 0 -9.76 0zM1379.62 1228.5 a4.88 4.88 0 1 0 9.76 0 a4.88 4.88 0 1 0 -9.76 0z" fill="black"></path><path d="M1106.62 799.5 a4.88 4.88 0 1 0 9.76 0 a4.88 4.88 0 1 0 -9.76 0zM833.62 799.5 a4.88 4.88 0 1 0 9.76 0 a4.88 4.88 0 1 0 -9.76 0z" fill="black"></path><path d="M1808.62 994.5 a4.88 4.88 0 1 0 9.76 0 a4.88 4.88 0 1 0 -9.76 0zM1886.62 1111.5 a4.88 4.88 0 1 0 9.76 0 a4.88 4.88 0 1 0 -9.76 0z" fill="black"></path><path d="M248.62 175.5 a4.88 4.88 0 1 0 9.76 0 a4.88 4.88 0 1 0 -9.76 0zM365.62 253.5 a4.88 4.88 0 1 0 9.76 0 a4.88 4.88 0 1 0 -9.76 0z" fill="black"></path><path d="M833.62 1033.5 a4.88 4.88 0 1 0 9.76 0 a4.88 4.88 0 1 0 -9.76 0zM1379.62 838.5 a4.88 4.88 0 1 0 9.76 0 a4.88 4.88 0 1 0 -9.76 0z" fill="black"></path><path d="M1301.62 916.5 a4.88 4.88 0 1 0 9.76 0 a4.88 4.88 0 1 0 -9.76 0zM872.62 1228.5 a4.88 4.88 0 1 0 9.76 0 a4.88 4.88 0 1 0 -9.76 0z" fill="black"></path><path d="M170.62 916.5 a4.88 4.88 0 1 0 9.76 0 a4.88 4.88 0 1 0 -9.76 0zM53.62 1111.5 a4.88 4.88 0 1 0 9.76 0 a4.88 4.88 0 1 0 -9.76 0z" fill="black"></path><path d="M365.62 136.5 a4.88 4.88 0 1 0 9.76 0 a4.88 4.88 0 1 0 -9.76 0zM248.62 136.5 a4.88 4.88 0 1 0 9.76 0 a4.88 4.88 0 1 0 -9.76 0z" fill="black"></path><path d="M599.62 1150.5 a4.88 4.88 0 1 0 9.76 0 a4.88 4.88 0 1 0 -9.76 0zM989.62 838.5 a4.88 4.88 0 1 0 9.76 0 a4.88 4.88 0 1 0 -9.76 0z" fill="black"></path><path d="M1223.62 760.5 a4.88 4.88 0 1 0 9.76 0 a4.88 4.88 0 1 0 -9.76 0zM989.62 643.5 a4.88 4.88 0 1 0 9.76 0 a4.88 4.88 0 1 0 -9.76 0z" fill="black"></path><path d="M716.62 1072.5 a4.88 4.88 0 1 0 9.76 0 a4.88 4.88 0 1 0 -9.76 0zM911.62 916.5 a4.88 4.88 0 1 0 9.76 0 a4.88 4.88 0 1 0 -9.76 0z" fill="black"></path><path d="M1886.62 19.5 a4.88 4.88 0 1 0 9.76 0 a4.88 4.88 0 1 0 -9.76 0zM1925.62 175.5 a4.88 4.88 0 1 0 9.76 0 a4.88 4.88 0 1 0 -9.76 0z" fill="black"></path><path d="M989.62 916.5 a4.88 4.88 0 1 0 9.76 0 a4.88 4.88 0 1 0 -9.76 0zM1067.62 994.5 a4.88 4.88 0 1 0 9.76 0 a4.88 4.88 0 1 0 -9.76 0z" fill="black"></path><path d="M1223.62 409.5 a4.88 4.88 0 1 0 9.76 0 a4.88 4.88 0 1 0 -9.76 0zM1418.62 19.5 a4.88 4.88 0 1 0 9.76 0 a4.88 4.88 0 1 0 -9.76 0z" fill="black"></path><path d="M443.62 136.5 a4.88 4.88 0 1 0 9.76 0 a4.88 4.88 0 1 0 -9.76 0zM638.62 19.5 a4.88 4.88 0 1 0 9.76 0 a4.88 4.88 0 1 0 -9.76 0z" fill="black"></path><path d="M716.62 760.5 a4.88 4.88 0 1 0 9.76 0 a4.88 4.88 0 1 0 -9.76 0zM560.62 955.5 a4.88 4.88 0 1 0 9.76 0 a4.88 4.88 0 1 0 -9.76 0z" fill="black"></path><path d="M1535.62 799.5 a4.88 4.88 0 1 0 9.76 0 a4.88 4.88 0 1 0 -9.76 0zM1691.62 721.5 a4.88 4.88 0 1 0 9.76 0 a4.88 4.88 0 1 0 -9.76 0z" fill="black"></path><path d="M14.62 292.5 a4.88 4.88 0 1 0 9.76 0 a4.88 4.88 0 1 0 -9.76 0zM209.62 292.5 a4.88 4.88 0 1 0 9.76 0 a4.88 4.88 0 1 0 -9.76 0z" fill="black"></path><path d="M911.62 253.5 a4.88 4.88 0 1 0 9.76 0 a4.88 4.88 0 1 0 -9.76 0zM1067.62 448.5 a4.88 4.88 0 1 0 9.76 0 a4.88 4.88 0 1 0 -9.76 0z" fill="black"></path><path d="M53.62 448.5 a4.88 4.88 0 1 0 9.76 0 a4.88 4.88 0 1 0 -9.76 0zM14.62 760.5 a4.88 4.88 0 1 0 9.76 0 a4.88 4.88 0 1 0 -9.76 0z" fill="black"></path><path d="M53.62 565.5 a4.88 4.88 0 1 0 9.76 0 a4.88 4.88 0 1 0 -9.76 0zM53.62 1072.5 a4.88 4.88 0 1 0 9.76 0 a4.88 4.88 0 1 0 -9.76 0z" fill="black"></path><path d="M1691.62 370.5 a4.88 4.88 0 1 0 9.76 0 a4.88 4.88 0 1 0 -9.76 0zM1769.62 292.5 a4.88 4.88 0 1 0 9.76 0 a4.88 4.88 0 1 0 -9.76 0z" fill="black"></path><path d="M1028.62 1228.5 a4.88 4.88 0 1 0 9.76 0 a4.88 4.88 0 1 0 -9.76 0zM1496.62 955.5 a4.88 4.88 0 1 0 9.76 0 a4.88 4.88 0 1 0 -9.76 0z" fill="black"></path><path d="M521.62 58.5 a4.88 4.88 0 1 0 9.76 0 a4.88 4.88 0 1 0 -9.76 0zM599.62 19.5 a4.88 4.88 0 1 0 9.76 0 a4.88 4.88 0 1 0 -9.76 0z" fill="black"></path><path d="M1730.62 409.5 a4.88 4.88 0 1 0 9.76 0 a4.88 4.88 0 1 0 -9.76 0zM1574.62 448.5 a4.88 4.88 0 1 0 9.76 0 a4.88 4.88 0 1 0 -9.76 0z" fill="black"></path><path d="M1145.62 253.5 a4.88 4.88 0 1 0 9.76 0 a4.88 4.88 0 1 0 -9.76 0zM1223.62 175.5 a4.88 4.88 0 1 0 9.76 0 a4.88 4.88 0 1 0 -9.76 0z" fill="black"></path><path d="M638.62 487.5 a4.88 4.88 0 1 0 9.76 0 a4.88 4.88 0 1 0 -9.76 0zM560.62 721.5 a4.88 4.88 0 1 0 9.76 0 a4.88 4.88 0 1 0 -9.76 0z" fill="black"></path><path d="M1847.62 643.5 a4.88 4.88 0 1 0 9.76 0 a4.88 4.88 0 1 0 -9.76 0zM1457.62 604.5 a4.88 4.88 0 1 0 9.76 0 a4.88 4.88 0 1 0 -9.76 0z" fill="black"></path><path d="M1769.62 97.5 a4.88 4.88 0 1 0 9.76 0 a4.88 4.88 0 1 0 -9.76 0zM1886.62 331.5 a4.88 4.88 0 1 0 9.76 0 a4.88 4.88 0 1 0 -9.76 0z" fill="black"></path><path d="M794.62 136.5 a4.88 4.88 0 1 0 9.76 0 a4.88 4.88 0 1 0 -9.76 0zM1106.62 58.5 a4.88 4.88 0 1 0 9.76 0 a4.88 4.88 0 1 0 -9.76 0z" fill="black"></path><path d="M1379.62 994.5 a4.88 4.88 0 1 0 9.76 0 a4.88 4.88 0 1 0 -9.76 0zM1223.62 1033.5 a4.88 4.88 0 1 0 9.76 0 a4.88 4.88 0 1 0 -9.76 0z" fill="black"></path><path d="M1379.62 136.5 a4.88 4.88 0 1 0 9.76 0 a4.88 4.88 0 1 0 -9.76 0zM1301.62 253.5 a4.88 4.88 0 1 0 9.76 0 a4.88 4.88 0 1 0 -9.76 0z" fill="black"></path><path d="M911.62 97.5 a4.88 4.88 0 1 0 9.76 0 a4.88 4.88 0 1 0 -9.76 0zM950.62 214.5 a4.88 4.88 0 1 0 9.76 0 a4.88 4.88 0 1 0 -9.76 0z" fill="black"></path><path d="M92.62 19.5 a4.88 4.88 0 1 0 9.76 0 a4.88 4.88 0 1 0 -9.76 0zM248.62 19.5 a4.88 4.88 0 1 0 9.76 0 a4.88 4.88 0 1 0 -9.76 0z" fill="black"></path><path d="M911.62 175.5 a4.88 4.88 0 1 0 9.76 0 a4.88 4.88 0 1 0 -9.76 0zM638.62 214.5 a4.88 4.88 0 1 0 9.76 0 a4.88 4.88 0 1 0 -9.76 0z" fill="black"></path><path d="M1730.62 682.5 a4.88 4.88 0 1 0 9.76 0 a4.88 4.88 0 1 0 -9.76 0zM1808.62 565.5 a4.88 4.88 0 1 0 9.76 0 a4.88 4.88 0 1 0 -9.76 0z" fill="black"></path><path d="M1145.62 97.5 a4.88 4.88 0 1 0 9.76 0 a4.88 4.88 0 1 0 -9.76 0zM1067.62 292.5 a4.88 4.88 0 1 0 9.76 0 a4.88 4.88 0 1 0 -9.76 0z" fill="black"></path><path d="M794.62 760.5 a4.88 4.88 0 1 0 9.76 0 a4.88 4.88 0 1 0 -9.76 0zM989.62 526.5 a4.88 4.88 0 1 0 9.76 0 a4.88 4.88 0 1 0 -9.76 0z" fill="black"></path><path d="M248.62 877.5 a4.88 4.88 0 1 0 9.76 0 a4.88 4.88 0 1 0 -9.76 0zM326.62 565.5 a4.88 4.88 0 1 0 9.76 0 a4.88 4.88 0 1 0 -9.76 0z" fill="black"></path><path d="M638.62 994.5 a4.88 4.88 0 1 0 9.76 0 a4.88 4.88 0 1 0 -9.76 0zM599.62 1072.5 a4.88 4.88 0 1 0 9.76 0 a4.88 4.88 0 1 0 -9.76 0z" fill="black"></path><path d="M716.62 253.5 a4.88 4.88 0 1 0 9.76 0 a4.88 4.88 0 1 0 -9.76 0zM911.62 214.5 a4.88 4.88 0 1 0 9.76 0 a4.88 4.88 0 1 0 -9.76 0z" fill="black"></path><path d="M1340.62 1111.5 a4.88 4.88 0 1 0 9.76 0 a4.88 4.88 0 1 0 -9.76 0zM1379.62 1033.5 a4.88 4.88 0 1 0 9.76 0 a4.88 4.88 0 1 0 -9.76 0z" fill="black"></path><path d="M1223.62 448.5 a4.88 4.88 0 1 0 9.76 0 a4.88 4.88 0 1 0 -9.76 0zM1457.62 448.5 a4.88 4.88 0 1 0 9.76 0 a4.88 4.88 0 1 0 -9.76 0z" fill="black"></path><path d="M53.62 877.5 a4.88 4.88 0 1 0 9.76 0 a4.88 4.88 0 1 0 -9.76 0zM53.62 799.5 a4.88 4.88 0 1 0 9.76 0 a4.88 4.88 0 1 0 -9.76 0z" fill="black"></path><path d="M1808.62 877.5 a4.88 4.88 0 1 0 9.76 0 a4.88 4.88 0 1 0 -9.76 0zM1613.62 877.5 a4.88 4.88 0 1 0 9.76 0 a4.88 4.88 0 1 0 -9.76 0z" fill="black"></path><path d="M170.62 526.5 a4.88 4.88 0 1 0 9.76 0 a4.88 4.88 0 1 0 -9.76 0zM209.62 370.5 a4.88 4.88 0 1 0 9.76 0 a4.88 4.88 0 1 0 -9.76 0z" fill="black"></path><path d="M1184.62 760.5 a4.88 4.88 0 1 0 9.76 0 a4.88 4.88 0 1 0 -9.76 0zM1223.62 682.5 a4.88 4.88 0 1 0 9.76 0 a4.88 4.88 0 1 0 -9.76 0z" fill="black"></path><path d="M677.62 799.5 a4.88 4.88 0 1 0 9.76 0 a4.88 4.88 0 1 0 -9.76 0zM560.62 916.5 a4.88 4.88 0 1 0 9.76 0 a4.88 4.88 0 1 0 -9.76 0z" fill="black"></path><path d="M950.62 19.5 a4.88 4.88 0 1 0 9.76 0 a4.88 4.88 0 1 0 -9.76 0zM1067.62 19.5 a4.88 4.88 0 1 0 9.76 0 a4.88 4.88 0 1 0 -9.76 0z" fill="black"></path><path d="M1184.62 1072.5 a4.88 4.88 0 1 0 9.76 0 a4.88 4.88 0 1 0 -9.76 0zM1067.62 1189.5 a4.88 4.88 0 1 0 9.76 0 a4.88 4.88 0 1 0 -9.76 0z" fill="black"></path><path d="M1067.62 760.5 a4.88 4.88 0 1 0 9.76 0 a4.88 4.88 0 1 0 -9.76 0zM872.62 760.5 a4.88 4.88 0 1 0 9.76 0 a4.88 4.88 0 1 0 -9.76 0z" fill="black"></path><path d="M248.62 955.5 a4.88 4.88 0 1 0 9.76 0 a4.88 4.88 0 1 0 -9.76 0zM521.62 760.5 a4.88 4.88 0 1 0 9.76 0 a4.88 4.88 0 1 0 -9.76 0z" fill="black"></path><path d="M1652.62 1150.5 a4.88 4.88 0 1 0 9.76 0 a4.88 4.88 0 1 0 -9.76 0zM1574.62 1228.5 a4.88 4.88 0 1 0 9.76 0 a4.88 4.88 0 1 0 -9.76 0z" fill="black"></path><path d="M911.62 526.5 a4.88 4.88 0 1 0 9.76 0 a4.88 4.88 0 1 0 -9.76 0zM599.62 643.5 a4.88 4.88 0 1 0 9.76 0 a4.88 4.88 0 1 0 -9.76 0z" fill="black"></path><path d="M326.62 1150.5 a4.88 4.88 0 1 0 9.76 0 a4.88 4.88 0 1 0 -9.76 0zM482.62 994.5 a4.88 4.88 0 1 0 9.76 0 a4.88 4.88 0 1 0 -9.76 0z" fill="black"></path><path d="M287.62 838.5 a4.88 4.88 0 1 0 9.76 0 a4.88 4.88 0 1 0 -9.76 0zM443.62 682.5 a4.88 4.88 0 1 0 9.76 0 a4.88 4.88 0 1 0 -9.76 0z" fill="black"></path><path d="M326.62 1072.5 a4.88 4.88 0 1 0 9.76 0 a4.88 4.88 0 1 0 -9.76 0zM443.62 955.5 a4.88 4.88 0 1 0 9.76 0 a4.88 4.88 0 1 0 -9.76 0z" fill="black"></path><path d="M1769.62 799.5 a4.88 4.88 0 1 0 9.76 0 a4.88 4.88 0 1 0 -9.76 0zM1847.62 682.5 a4.88 4.88 0 1 0 9.76 0 a4.88 4.88 0 1 0 -9.76 0z" fill="black"></path><path d="M638.62 604.5 a4.88 4.88 0 1 0 9.76 0 a4.88 4.88 0 1 0 -9.76 0zM638.62 292.5 a4.88 4.88 0 1 0 9.76 0 a4.88 4.88 0 1 0 -9.76 0z" fill="black"></path><path d="M1808.62 331.5 a4.88 4.88 0 1 0 9.76 0 a4.88 4.88 0 1 0 -9.76 0zM1613.62 448.5 a4.88 4.88 0 1 0 9.76 0 a4.88 4.88 0 1 0 -9.76 0z" fill="black"></path><path d="M833.62 409.5 a4.88 4.88 0 1 0 9.76 0 a4.88 4.88 0 1 0 -9.76 0zM911.62 331.5 a4.88 4.88 0 1 0 9.76 0 a4.88 4.88 0 1 0 -9.76 0z" fill="black"></path><path d="M53.62 487.5 a4.88 4.88 0 1 0 9.76 0 a4.88 4.88 0 1 0 -9.76 0zM131.62 487.5 a4.88 4.88 0 1 0 9.76 0 a4.88 4.88 0 1 0 -9.76 0z" fill="black"></path><path d="M521.62 604.5 a4.88 4.88 0 1 0 9.76 0 a4.88 4.88 0 1 0 -9.76 0zM521.62 682.5 a4.88 4.88 0 1 0 9.76 0 a4.88 4.88 0 1 0 -9.76 0z" fill="black"></path><path d="M1262.62 799.5 a4.88 4.88 0 1 0 9.76 0 a4.88 4.88 0 1 0 -9.76 0zM1340.62 799.5 a4.88 4.88 0 1 0 9.76 0 a4.88 4.88 0 1 0 -9.76 0z" fill="black"></path><path d="M950.62 994.5 a4.88 4.88 0 1 0 9.76 0 a4.88 4.88 0 1 0 -9.76 0zM1028.62 994.5 a4.88 4.88 0 1 0 9.76 0 a4.88 4.88 0 1 0 -9.76 0z" fill="black"></path><path d="M677.62 565.5 a4.88 4.88 0 1 0 9.76 0 a4.88 4.88 0 1 0 -9.76 0zM950.62 370.5 a4.88 4.88 0 1 0 9.76 0 a4.88 4.88 0 1 0 -9.76 0z" fill="black"></path><path d="M1223.62 331.5 a4.88 4.88 0 1 0 9.76 0 a4.88 4.88 0 1 0 -9.76 0zM1223.62 214.5 a4.88 4.88 0 1 0 9.76 0 a4.88 4.88 0 1 0 -9.76 0z" fill="black"></path><path d="M1184.62 1189.5 a4.88 4.88 0 1 0 9.76 0 a4.88 4.88 0 1 0 -9.76 0zM1184.62 1111.5 a4.88 4.88 0 1 0 9.76 0 a4.88 4.88 0 1 0 -9.76 0z" fill="black"></path><path d="M1847.62 955.5 a4.88 4.88 0 1 0 9.76 0 a4.88 4.88 0 1 0 -9.76 0zM1925.62 955.5 a4.88 4.88 0 1 0 9.76 0 a4.88 4.88 0 1 0 -9.76 0z" fill="black"></path><path d="M1925.62 97.5 a4.88 4.88 0 1 0 9.76 0 a4.88 4.88 0 1 0 -9.76 0zM1925.62 19.5 a4.88 4.88 0 1 0 9.76 0 a4.88 4.88 0 1 0 -9.76 0z" fill="black"></path><path d="M1262.62 1150.5 a4.88 4.88 0 1 0 9.76 0 a4.88 4.88 0 1 0 -9.76 0zM1262.62 1033.5 a4.88 4.88 0 1 0 9.76 0 a4.88 4.88 0 1 0 -9.76 0z" fill="black"></path><path d="M872.62 448.5 a4.88 4.88 0 1 0 9.76 0 a4.88 4.88 0 1 0 -9.76 0zM599.62 604.5 a4.88 4.88 0 1 0 9.76 0 a4.88 4.88 0 1 0 -9.76 0z" fill="black"></path><path d="M131.62 565.5 a4.88 4.88 0 1 0 9.76 0 a4.88 4.88 0 1 0 -9.76 0zM170.62 799.5 a4.88 4.88 0 1 0 9.76 0 a4.88 4.88 0 1 0 -9.76 0z" fill="black"></path><path d="M365.62 604.5 a4.88 4.88 0 1 0 9.76 0 a4.88 4.88 0 1 0 -9.76 0zM287.62 799.5 a4.88 4.88 0 1 0 9.76 0 a4.88 4.88 0 1 0 -9.76 0z" fill="black"></path><path d="M53.62 175.5 a4.88 4.88 0 1 0 9.76 0 a4.88 4.88 0 1 0 -9.76 0zM92.62 253.5 a4.88 4.88 0 1 0 9.76 0 a4.88 4.88 0 1 0 -9.76 0z" fill="black"></path><path d="M1691.62 1111.5 a4.88 4.88 0 1 0 9.76 0 a4.88 4.88 0 1 0 -9.76 0zM1613.62 994.5 a4.88 4.88 0 1 0 9.76 0 a4.88 4.88 0 1 0 -9.76 0z" fill="black"></path><path d="M1418.62 331.5 a4.88 4.88 0 1 0 9.76 0 a4.88 4.88 0 1 0 -9.76 0zM1457.62 175.5 a4.88 4.88 0 1 0 9.76 0 a4.88 4.88 0 1 0 -9.76 0z" fill="black"></path><path d="M1691.62 955.5 a4.88 4.88 0 1 0 9.76 0 a4.88 4.88 0 1 0 -9.76 0zM1613.62 916.5 a4.88 4.88 0 1 0 9.76 0 a4.88 4.88 0 1 0 -9.76 0z" fill="black"></path><path d="M1145.62 526.5 a4.88 4.88 0 1 0 9.76 0 a4.88 4.88 0 1 0 -9.76 0zM1145.62 760.5 a4.88 4.88 0 1 0 9.76 0 a4.88 4.88 0 1 0 -9.76 0z" fill="black"></path><path d="M1847.62 1072.5 a4.88 4.88 0 1 0 9.76 0 a4.88 4.88 0 1 0 -9.76 0zM1730.62 1111.5 a4.88 4.88 0 1 0 9.76 0 a4.88 4.88 0 1 0 -9.76 0z" fill="black"></path><path d="M1925.62 838.5 a4.88 4.88 0 1 0 9.76 0 a4.88 4.88 0 1 0 -9.76 0zM1925.62 916.5 a4.88 4.88 0 1 0 9.76 0 a4.88 4.88 0 1 0 -9.76 0z" fill="black"></path><path d="M1262.62 1189.5 a4.88 4.88 0 1 0 9.76 0 a4.88 4.88 0 1 0 -9.76 0zM1301.62 1033.5 a4.88 4.88 0 1 0 9.76 0 a4.88 4.88 0 1 0 -9.76 0z" fill="black"></path><path d="M1847.62 916.5 a4.88 4.88 0 1 0 9.76 0 a4.88 4.88 0 1 0 -9.76 0zM1847.62 721.5 a4.88 4.88 0 1 0 9.76 0 a4.88 4.88 0 1 0 -9.76 0z" fill="black"></path><path d="M1067.62 175.5 a4.88 4.88 0 1 0 9.76 0 a4.88 4.88 0 1 0 -9.76 0zM1028.62 253.5 a4.88 4.88 0 1 0 9.76 0 a4.88 4.88 0 1 0 -9.76 0z" fill="black"></path><path d="M1730.62 643.5 a4.88 4.88 0 1 0 9.76 0 a4.88 4.88 0 1 0 -9.76 0zM1769.62 565.5 a4.88 4.88 0 1 0 9.76 0 a4.88 4.88 0 1 0 -9.76 0z" fill="black"></path><path d="M1847.62 97.5 a4.88 4.88 0 1 0 9.76 0 a4.88 4.88 0 1 0 -9.76 0zM1847.62 19.5 a4.88 4.88 0 1 0 9.76 0 a4.88 4.88 0 1 0 -9.76 0z" fill="black"></path><path d="M755.62 487.5 a4.88 4.88 0 1 0 9.76 0 a4.88 4.88 0 1 0 -9.76 0zM560.62 526.5 a4.88 4.88 0 1 0 9.76 0 a4.88 4.88 0 1 0 -9.76 0z" fill="black"></path><path d="M1808.62 175.5 a4.88 4.88 0 1 0 9.76 0 a4.88 4.88 0 1 0 -9.76 0zM1691.62 58.5 a4.88 4.88 0 1 0 9.76 0 a4.88 4.88 0 1 0 -9.76 0z" fill="black"></path><path d="M677.62 838.5 a4.88 4.88 0 1 0 9.76 0 a4.88 4.88 0 1 0 -9.76 0zM716.62 916.5 a4.88 4.88 0 1 0 9.76 0 a4.88 4.88 0 1 0 -9.76 0z" fill="black"></path><path d="M365.62 682.5 a4.88 4.88 0 1 0 9.76 0 a4.88 4.88 0 1 0 -9.76 0zM326.62 760.5 a4.88 4.88 0 1 0 9.76 0 a4.88 4.88 0 1 0 -9.76 0z" fill="black"></path><path d="M521.62 19.5 a4.88 4.88 0 1 0 9.76 0 a4.88 4.88 0 1 0 -9.76 0zM404.62 19.5 a4.88 4.88 0 1 0 9.76 0 a4.88 4.88 0 1 0 -9.76 0z" fill="black"></path><path d="M1379.62 487.5 a4.88 4.88 0 1 0 9.76 0 a4.88 4.88 0 1 0 -9.76 0zM1262.62 487.5 a4.88 4.88 0 1 0 9.76 0 a4.88 4.88 0 1 0 -9.76 0z" fill="black"></path><path d="M716.62 370.5 a4.88 4.88 0 1 0 9.76 0 a4.88 4.88 0 1 0 -9.76 0zM833.62 370.5 a4.88 4.88 0 1 0 9.76 0 a4.88 4.88 0 1 0 -9.76 0z" fill="black"></path><path d="M599.62 1228.5 a4.88 4.88 0 1 0 9.76 0 a4.88 4.88 0 1 0 -9.76 0zM794.62 1033.5 a4.88 4.88 0 1 0 9.76 0 a4.88 4.88 0 1 0 -9.76 0z" fill="black"></path><path d="M1652.62 760.5 a4.88 4.88 0 1 0 9.76 0 a4.88 4.88 0 1 0 -9.76 0zM1535.62 838.5 a4.88 4.88 0 1 0 9.76 0 a4.88 4.88 0 1 0 -9.76 0z" fill="black"></path><path d="M287.62 136.5 a4.88 4.88 0 1 0 9.76 0 a4.88 4.88 0 1 0 -9.76 0zM365.62 214.5 a4.88 4.88 0 1 0 9.76 0 a4.88 4.88 0 1 0 -9.76 0z" fill="black"></path><path d="M1925.62 799.5 a4.88 4.88 0 1 0 9.76 0 a4.88 4.88 0 1 0 -9.76 0zM1925.62 604.5 a4.88 4.88 0 1 0 9.76 0 a4.88 4.88 0 1 0 -9.76 0z" fill="black"></path><path d="M755.62 1228.5 a4.88 4.88 0 1 0 9.76 0 a4.88 4.88 0 1 0 -9.76 0zM794.62 1111.5 a4.88 4.88 0 1 0 9.76 0 a4.88 4.88 0 1 0 -9.76 0z" fill="black"></path><path d="M1730.62 799.5 a4.88 4.88 0 1 0 9.76 0 a4.88 4.88 0 1 0 -9.76 0zM1652.62 838.5 a4.88 4.88 0 1 0 9.76 0 a4.88 4.88 0 1 0 -9.76 0z" fill="black"></path><path d="M1613.62 604.5 a4.88 4.88 0 1 0 9.76 0 a4.88 4.88 0 1 0 -9.76 0zM1496.62 604.5 a4.88 4.88 0 1 0 9.76 0 a4.88 4.88 0 1 0 -9.76 0z" fill="black"></path><path d="M14.62 1228.5 a4.88 4.88 0 1 0 9.76 0 a4.88 4.88 0 1 0 -9.76 0zM92.62 1228.5 a4.88 4.88 0 1 0 9.76 0 a4.88 4.88 0 1 0 -9.76 0z" fill="black"></path><path d="M1145.62 370.5 a4.88 4.88 0 1 0 9.76 0 a4.88 4.88 0 1 0 -9.76 0zM1184.62 253.5 a4.88 4.88 0 1 0 9.76 0 a4.88 4.88 0 1 0 -9.76 0z" fill="black"></path><path d="M794.62 331.5 a4.88 4.88 0 1 0 9.76 0 a4.88 4.88 0 1 0 -9.76 0zM716.62 331.5 a4.88 4.88 0 1 0 9.76 0 a4.88 4.88 0 1 0 -9.76 0z" fill="black"></path><path d="M326.62 877.5 a4.88 4.88 0 1 0 9.76 0 a4.88 4.88 0 1 0 -9.76 0zM248.62 994.5 a4.88 4.88 0 1 0 9.76 0 a4.88 4.88 0 1 0 -9.76 0z" fill="black"></path><path d="M1535.62 1111.5 a4.88 4.88 0 1 0 9.76 0 a4.88 4.88 0 1 0 -9.76 0zM1457.62 1189.5 a4.88 4.88 0 1 0 9.76 0 a4.88 4.88 0 1 0 -9.76 0z" fill="black"></path><path d="M1691.62 643.5 a4.88 4.88 0 1 0 9.76 0 a4.88 4.88 0 1 0 -9.76 0zM1691.62 565.5 a4.88 4.88 0 1 0 9.76 0 a4.88 4.88 0 1 0 -9.76 0z" fill="black"></path><path d="M170.62 1111.5 a4.88 4.88 0 1 0 9.76 0 a4.88 4.88 0 1 0 -9.76 0zM170.62 1033.5 a4.88 4.88 0 1 0 9.76 0 a4.88 4.88 0 1 0 -9.76 0z" fill="black"></path><path d="M1379.62 409.5 a4.88 4.88 0 1 0 9.76 0 a4.88 4.88 0 1 0 -9.76 0zM1457.62 409.5 a4.88 4.88 0 1 0 9.76 0 a4.88 4.88 0 1 0 -9.76 0z" fill="black"></path><path d="M1574.62 214.5 a4.88 4.88 0 1 0 9.76 0 a4.88 4.88 0 1 0 -9.76 0zM1847.62 253.5 a4.88 4.88 0 1 0 9.76 0 a4.88 4.88 0 1 0 -9.76 0z" fill="black"></path><path d="M1769.62 838.5 a4.88 4.88 0 1 0 9.76 0 a4.88 4.88 0 1 0 -9.76 0zM1691.62 838.5 a4.88 4.88 0 1 0 9.76 0 a4.88 4.88 0 1 0 -9.76 0z" fill="black"></path><path d="M1535.62 19.5 a4.88 4.88 0 1 0 9.76 0 a4.88 4.88 0 1 0 -9.76 0zM1613.62 19.5 a4.88 4.88 0 1 0 9.76 0 a4.88 4.88 0 1 0 -9.76 0z" fill="black"></path><path d="M1808.62 1228.5 a4.88 4.88 0 1 0 9.76 0 a4.88 4.88 0 1 0 -9.76 0zM1925.62 1228.5 a4.88 4.88 0 1 0 9.76 0 a4.88 4.88 0 1 0 -9.76 0z" fill="black"></path><path d="M911.62 994.5 a4.88 4.88 0 1 0 9.76 0 a4.88 4.88 0 1 0 -9.76 0zM872.62 1189.5 a4.88 4.88 0 1 0 9.76 0 a4.88 4.88 0 1 0 -9.76 0z" fill="black"></path><path d="M1028.62 916.5 a4.88 4.88 0 1 0 9.76 0 a4.88 4.88 0 1 0 -9.76 0zM1106.62 955.5 a4.88 4.88 0 1 0 9.76 0 a4.88 4.88 0 1 0 -9.76 0z" fill="black"></path><path d="M1301.62 409.5 a4.88 4.88 0 1 0 9.76 0 a4.88 4.88 0 1 0 -9.76 0zM1418.62 253.5 a4.88 4.88 0 1 0 9.76 0 a4.88 4.88 0 1 0 -9.76 0z" fill="black"></path><path d="M1574.62 292.5 a4.88 4.88 0 1 0 9.76 0 a4.88 4.88 0 1 0 -9.76 0zM1691.62 136.5 a4.88 4.88 0 1 0 9.76 0 a4.88 4.88 0 1 0 -9.76 0z" fill="black"></path><path d="M872.62 1072.5 a4.88 4.88 0 1 0 9.76 0 a4.88 4.88 0 1 0 -9.76 0zM872.62 1150.5 a4.88 4.88 0 1 0 9.76 0 a4.88 4.88 0 1 0 -9.76 0z" fill="black"></path><path d="M92.62 877.5 a4.88 4.88 0 1 0 9.76 0 a4.88 4.88 0 1 0 -9.76 0zM53.62 955.5 a4.88 4.88 0 1 0 9.76 0 a4.88 4.88 0 1 0 -9.76 0z" fill="black"></path><path d="M1613.62 292.5 a4.88 4.88 0 1 0 9.76 0 a4.88 4.88 0 1 0 -9.76 0zM1652.62 214.5 a4.88 4.88 0 1 0 9.76 0 a4.88 4.88 0 1 0 -9.76 0z" fill="black"></path><path d="M1730.62 994.5 a4.88 4.88 0 1 0 9.76 0 a4.88 4.88 0 1 0 -9.76 0zM1730.62 916.5 a4.88 4.88 0 1 0 9.76 0 a4.88 4.88 0 1 0 -9.76 0z" fill="black"></path><path d="M170.62 58.5 a4.88 4.88 0 1 0 9.76 0 a4.88 4.88 0 1 0 -9.76 0zM131.62 136.5 a4.88 4.88 0 1 0 9.76 0 a4.88 4.88 0 1 0 -9.76 0z" fill="black"></path><path d="M1535.62 1150.5 a4.88 4.88 0 1 0 9.76 0 a4.88 4.88 0 1 0 -9.76 0zM1652.62 1111.5 a4.88 4.88 0 1 0 9.76 0 a4.88 4.88 0 1 0 -9.76 0z" fill="black"></path><path d="M14.62 214.5 a4.88 4.88 0 1 0 9.76 0 a4.88 4.88 0 1 0 -9.76 0zM14.62 136.5 a4.88 4.88 0 1 0 9.76 0 a4.88 4.88 0 1 0 -9.76 0z" fill="black"></path><path d="M443.62 1072.5 a4.88 4.88 0 1 0 9.76 0 a4.88 4.88 0 1 0 -9.76 0zM404.62 1150.5 a4.88 4.88 0 1 0 9.76 0 a4.88 4.88 0 1 0 -9.76 0z" fill="black"></path><path d="M170.62 409.5 a4.88 4.88 0 1 0 9.76 0 a4.88 4.88 0 1 0 -9.76 0zM92.62 409.5 a4.88 4.88 0 1 0 9.76 0 a4.88 4.88 0 1 0 -9.76 0z" fill="black"></path><path d="M1496.62 799.5 a4.88 4.88 0 1 0 9.76 0 a4.88 4.88 0 1 0 -9.76 0zM1574.62 721.5 a4.88 4.88 0 1 0 9.76 0 a4.88 4.88 0 1 0 -9.76 0z" fill="black"></path><path d="M1496.62 916.5 a4.88 4.88 0 1 0 9.76 0 a4.88 4.88 0 1 0 -9.76 0zM1340.62 916.5 a4.88 4.88 0 1 0 9.76 0 a4.88 4.88 0 1 0 -9.76 0z" fill="black"></path><path d="M1691.62 1228.5 a4.88 4.88 0 1 0 9.76 0 a4.88 4.88 0 1 0 -9.76 0zM1808.62 1189.5 a4.88 4.88 0 1 0 9.76 0 a4.88 4.88 0 1 0 -9.76 0z" fill="black"></path><path d="M677.62 877.5 a4.88 4.88 0 1 0 9.76 0 a4.88 4.88 0 1 0 -9.76 0zM599.62 916.5 a4.88 4.88 0 1 0 9.76 0 a4.88 4.88 0 1 0 -9.76 0z" fill="black"></path><path d="M989.62 97.5 a4.88 4.88 0 1 0 9.76 0 a4.88 4.88 0 1 0 -9.76 0zM1067.62 97.5 a4.88 4.88 0 1 0 9.76 0 a4.88 4.88 0 1 0 -9.76 0z" fill="black"></path></mask></defs></svg>